<svg width="473" height="366" xmlns="http://www.w3.org/2000/svg" xmlns:xlink="http://www.w3.org/1999/xlink" overflow="hidden"><defs><clipPath id="clip0"><rect x="52" y="392" width="473" height="366"/></clipPath><clipPath id="clip1"><rect x="52" y="392" width="472" height="364"/></clipPath><clipPath id="clip2"><rect x="52" y="392" width="472" height="364"/></clipPath><clipPath id="clip3"><rect x="52" y="392" width="472" height="364"/></clipPath><clipPath id="clip4"><rect x="111" y="407" width="399" height="302"/></clipPath><clipPath id="clip5"><rect x="52" y="392" width="472" height="364"/></clipPath><clipPath id="clip6"><rect x="111" y="407" width="399" height="302"/></clipPath><clipPath id="clip7"><rect x="52" y="392" width="472" height="364"/></clipPath><clipPath id="clip8"><rect x="52" y="392" width="472" height="364"/></clipPath><clipPath id="clip9"><rect x="52" y="392" width="472" height="364"/></clipPath><clipPath id="clip10"><rect x="52" y="392" width="472" height="364"/></clipPath><clipPath id="clip11"><rect x="52" y="392" width="472" height="364"/></clipPath><clipPath id="clip12"><rect x="52" y="392" width="472" height="364"/></clipPath><clipPath id="clip13"><rect x="52" y="392" width="472" height="364"/></clipPath><clipPath id="clip14"><rect x="52" y="392" width="472" height="364"/></clipPath><clipPath id="clip15"><rect x="52" y="392" width="472" height="364"/></clipPath><clipPath id="clip16"><rect x="52" y="392" width="472" height="364"/></clipPath><clipPath id="clip17"><rect x="52" y="392" width="472" height="364"/></clipPath><clipPath id="clip18"><rect x="52" y="392" width="472" height="364"/></clipPath><clipPath id="clip19"><rect x="52" y="392" width="472" height="364"/></clipPath><clipPath id="clip20"><rect x="52" y="392" width="472" height="364"/></clipPath><clipPath id="clip21"><rect x="52" y="392" width="472" height="364"/></clipPath><clipPath id="clip22"><rect x="52" y="392" width="472" height="364"/></clipPath><clipPath id="clip23"><rect x="52" y="392" width="472" height="364"/></clipPath><clipPath id="clip24"><rect x="52" y="392" width="472" height="364"/></clipPath><clipPath id="clip25"><rect x="52" y="392" width="472" height="364"/></clipPath><clipPath id="clip26"><rect x="52" y="392" width="472" height="364"/></clipPath><clipPath id="clip27"><rect x="52" y="392" width="472" height="364"/></clipPath><clipPath id="clip28"><rect x="52" y="392" width="472" height="364"/></clipPath><clipPath id="clip29"><rect x="52" y="392" width="472" height="364"/></clipPath><clipPath id="clip30"><rect x="52" y="392" width="472" height="364"/></clipPath><clipPath id="clip31"><rect x="52" y="392" width="472" height="364"/></clipPath><clipPath id="clip32"><rect x="52" y="392" width="472" height="364"/></clipPath><clipPath id="clip33"><rect x="52" y="392" width="472" height="364"/></clipPath><clipPath id="clip34"><rect x="52" y="392" width="472" height="364"/></clipPath></defs><g clip-path="url(#clip0)" transform="translate(-52 -392)"><rect x="52" y="393" width="472" height="364" fill="#FFFFFF"/><g clip-path="url(#clip1)"><path d="M111.5 708.5 509.5 708.5M111.5 658.5 509.5 658.5M111.5 608.5 509.5 608.5M111.5 557.5 509.5 557.5M111.5 507.5 509.5 507.5M111.5 457.5 509.5 457.5M111.5 407.5 509.5 407.5" stroke="#D9D9D9" stroke-linejoin="round" stroke-miterlimit="10" fill="none"/></g><g clip-path="url(#clip2)"><path d="M0 0 0.000104987 301" stroke="#404040" stroke-width="1.66667" stroke-linejoin="round" stroke-miterlimit="10" fill="none" fill-rule="evenodd" transform="matrix(1 0 0 -1 112 708)"/></g><g clip-path="url(#clip3)"><path d="M112 708 509 708" stroke="#404040" stroke-width="1.66667" stroke-linejoin="round" stroke-miterlimit="10" fill="none" fill-rule="evenodd"/></g><g clip-path="url(#clip4)"><path d="M126 498 154 495 183 481 211 525 240 530 268 535 296 510 325 571 353 603 382 617 410 630 438 642 467 648 495 650" stroke="#4472C4" stroke-width="2" stroke-linecap="round" stroke-linejoin="round" stroke-miterlimit="10" fill="none"/></g><g clip-path="url(#clip5)"><path d="M129.333 498.286C129.333 500.127 127.841 501.619 126 501.619 124.159 501.619 122.667 500.127 122.667 498.286 122.667 496.445 124.159 494.952 126 494.952 127.841 494.952 129.333 496.445 129.333 498.286Z" stroke="#4472C4" stroke-linejoin="round" stroke-miterlimit="10" fill="#4472C4"/><path d="M157.833 495.119C157.833 496.96 156.341 498.452 154.5 498.452 152.659 498.452 151.167 496.96 151.167 495.119 151.167 493.278 152.659 491.786 154.5 491.786 156.341 491.786 157.833 493.278 157.833 495.119Z" stroke="#4472C4" stroke-linejoin="round" stroke-miterlimit="10" fill="#4472C4"/><path d="M186.167 480.619C186.167 482.46 184.674 483.952 182.833 483.952 180.992 483.952 179.5 482.46 179.5 480.619 179.5 478.778 180.992 477.286 182.833 477.286 184.674 477.286 186.167 478.778 186.167 480.619Z" stroke="#4472C4" stroke-linejoin="round" stroke-miterlimit="10" fill="#4472C4"/><path d="M214.667 524.452C214.667 526.293 213.174 527.786 211.333 527.786 209.492 527.786 208 526.293 208 524.452 208 522.611 209.492 521.119 211.333 521.119 213.174 521.119 214.667 522.611 214.667 524.452Z" stroke="#4472C4" stroke-linejoin="round" stroke-miterlimit="10" fill="#4472C4"/><path d="M243 529.952C243 531.793 241.508 533.286 239.667 533.286 237.826 533.286 236.333 531.793 236.333 529.952 236.333 528.111 237.826 526.619 239.667 526.619 241.508 526.619 243 528.111 243 529.952Z" stroke="#4472C4" stroke-linejoin="round" stroke-miterlimit="10" fill="#4472C4"/><path d="M271.333 534.952C271.333 536.793 269.841 538.286 268 538.286 266.159 538.286 264.667 536.793 264.667 534.952 264.667 533.111 266.159 531.619 268 531.619 269.841 531.619 271.333 533.111 271.333 534.952Z" stroke="#4472C4" stroke-linejoin="round" stroke-miterlimit="10" fill="#4472C4"/><path d="M299.833 510.119C299.833 511.96 298.341 513.452 296.5 513.452 294.659 513.452 293.167 511.96 293.167 510.119 293.167 508.278 294.659 506.786 296.5 506.786 298.341 506.786 299.833 508.278 299.833 510.119Z" stroke="#4472C4" stroke-linejoin="round" stroke-miterlimit="10" fill="#4472C4"/><path d="M328.167 570.786C328.167 572.627 326.674 574.119 324.833 574.119 322.992 574.119 321.5 572.627 321.5 570.786 321.5 568.945 322.992 567.452 324.833 567.452 326.674 567.452 328.167 568.945 328.167 570.786Z" stroke="#4472C4" stroke-linejoin="round" stroke-miterlimit="10" fill="#4472C4"/><path d="M356.667 603.119C356.667 604.96 355.174 606.452 353.333 606.452 351.492 606.452 350 604.96 350 603.119 350 601.278 351.492 599.786 353.333 599.786 355.174 599.786 356.667 601.278 356.667 603.119Z" stroke="#4472C4" stroke-linejoin="round" stroke-miterlimit="10" fill="#4472C4"/><path d="M385 616.619C385 618.46 383.508 619.952 381.667 619.952 379.826 619.952 378.333 618.46 378.333 616.619 378.333 614.778 379.826 613.286 381.667 613.286 383.508 613.286 385 614.778 385 616.619Z" stroke="#4472C4" stroke-linejoin="round" stroke-miterlimit="10" fill="#4472C4"/><path d="M413.5 630.119C413.5 631.96 412.008 633.452 410.167 633.452 408.326 633.452 406.833 631.96 406.833 630.119 406.833 628.278 408.326 626.786 410.167 626.786 412.008 626.786 413.5 628.278 413.5 630.119Z" stroke="#4472C4" stroke-linejoin="round" stroke-miterlimit="10" fill="#4472C4"/><path d="M441.833 641.619C441.833 643.46 440.341 644.952 438.5 644.952 436.659 644.952 435.167 643.46 435.167 641.619 435.167 639.778 436.659 638.286 438.5 638.286 440.341 638.286 441.833 639.778 441.833 641.619Z" stroke="#4472C4" stroke-linejoin="round" stroke-miterlimit="10" fill="#4472C4"/><path d="M470.167 647.619C470.167 649.46 468.674 650.952 466.833 650.952 464.992 650.952 463.5 649.46 463.5 647.619 463.5 645.778 464.992 644.286 466.833 644.286 468.674 644.286 470.167 645.778 470.167 647.619Z" stroke="#4472C4" stroke-linejoin="round" stroke-miterlimit="10" fill="#4472C4"/><path d="M498.667 649.619C498.667 651.46 497.174 652.952 495.333 652.952 493.492 652.952 492 651.46 492 649.619 492 647.778 493.492 646.286 495.333 646.286 497.174 646.286 498.667 647.778 498.667 649.619Z" stroke="#4472C4" stroke-linejoin="round" stroke-miterlimit="10" fill="#4472C4"/></g><g clip-path="url(#clip6)"><path d="M126 498 154 495 183 481 211 472 240 529 268 533 296 443 325 499 353 573 382 602 410 623 438 637 467 646 495 650" stroke="#ED7D31" stroke-width="2" stroke-linecap="round" stroke-linejoin="round" stroke-miterlimit="10" fill="none"/></g><g clip-path="url(#clip7)"><path d="M129.333 498.286C129.333 500.127 127.841 501.619 126 501.619 124.159 501.619 122.667 500.127 122.667 498.286 122.667 496.445 124.159 494.952 126 494.952 127.841 494.952 129.333 496.445 129.333 498.286Z" stroke="#ED7D31" stroke-linejoin="round" stroke-miterlimit="10" fill="#ED7D31"/><path d="M157.833 494.452C157.833 496.293 156.341 497.786 154.5 497.786 152.659 497.786 151.167 496.293 151.167 494.452 151.167 492.611 152.659 491.119 154.5 491.119 156.341 491.119 157.833 492.611 157.833 494.452Z" stroke="#ED7D31" stroke-linejoin="round" stroke-miterlimit="10" fill="#ED7D31"/><path d="M186.167 481.119C186.167 482.96 184.674 484.452 182.833 484.452 180.992 484.452 179.5 482.96 179.5 481.119 179.5 479.278 180.992 477.786 182.833 477.786 184.674 477.786 186.167 479.278 186.167 481.119Z" stroke="#ED7D31" stroke-linejoin="round" stroke-miterlimit="10" fill="#ED7D31"/><path d="M214.667 472.452C214.667 474.293 213.174 475.786 211.333 475.786 209.492 475.786 208 474.293 208 472.452 208 470.611 209.492 469.119 211.333 469.119 213.174 469.119 214.667 470.611 214.667 472.452Z" stroke="#ED7D31" stroke-linejoin="round" stroke-miterlimit="10" fill="#ED7D31"/><path d="M243 528.952C243 530.793 241.508 532.286 239.667 532.286 237.826 532.286 236.333 530.793 236.333 528.952 236.333 527.111 237.826 525.619 239.667 525.619 241.508 525.619 243 527.111 243 528.952Z" stroke="#ED7D31" stroke-linejoin="round" stroke-miterlimit="10" fill="#ED7D31"/><path d="M271.333 532.952C271.333 534.793 269.841 536.286 268 536.286 266.159 536.286 264.667 534.793 264.667 532.952 264.667 531.111 266.159 529.619 268 529.619 269.841 529.619 271.333 531.111 271.333 532.952Z" stroke="#ED7D31" stroke-linejoin="round" stroke-miterlimit="10" fill="#ED7D31"/><path d="M299.833 442.619C299.833 444.46 298.341 445.952 296.5 445.952 294.659 445.952 293.167 444.46 293.167 442.619 293.167 440.778 294.659 439.286 296.5 439.286 298.341 439.286 299.833 440.778 299.833 442.619Z" stroke="#ED7D31" stroke-linejoin="round" stroke-miterlimit="10" fill="#ED7D31"/><path d="M328.167 499.286C328.167 501.127 326.674 502.619 324.833 502.619 322.992 502.619 321.5 501.127 321.5 499.286 321.5 497.445 322.992 495.952 324.833 495.952 326.674 495.952 328.167 497.445 328.167 499.286Z" stroke="#ED7D31" stroke-linejoin="round" stroke-miterlimit="10" fill="#ED7D31"/><path d="M356.667 572.786C356.667 574.627 355.174 576.119 353.333 576.119 351.492 576.119 350 574.627 350 572.786 350 570.945 351.492 569.452 353.333 569.452 355.174 569.452 356.667 570.945 356.667 572.786Z" stroke="#ED7D31" stroke-linejoin="round" stroke-miterlimit="10" fill="#ED7D31"/><path d="M385 602.119C385 603.96 383.508 605.452 381.667 605.452 379.826 605.452 378.333 603.96 378.333 602.119 378.333 600.278 379.826 598.786 381.667 598.786 383.508 598.786 385 600.278 385 602.119Z" stroke="#ED7D31" stroke-linejoin="round" stroke-miterlimit="10" fill="#ED7D31"/><path d="M413.5 623.452C413.5 625.293 412.008 626.786 410.167 626.786 408.326 626.786 406.833 625.293 406.833 623.452 406.833 621.611 408.326 620.119 410.167 620.119 412.008 620.119 413.5 621.611 413.5 623.452Z" stroke="#ED7D31" stroke-linejoin="round" stroke-miterlimit="10" fill="#ED7D31"/><path d="M441.833 637.452C441.833 639.293 440.341 640.786 438.5 640.786 436.659 640.786 435.167 639.293 435.167 637.452 435.167 635.611 436.659 634.119 438.5 634.119 440.341 634.119 441.833 635.611 441.833 637.452Z" stroke="#ED7D31" stroke-linejoin="round" stroke-miterlimit="10" fill="#ED7D31"/><path d="M470.167 646.452C470.167 648.293 468.674 649.786 466.833 649.786 464.992 649.786 463.5 648.293 463.5 646.452 463.5 644.611 464.992 643.119 466.833 643.119 468.674 643.119 470.167 644.611 470.167 646.452Z" stroke="#ED7D31" stroke-linejoin="round" stroke-miterlimit="10" fill="#ED7D31"/><path d="M498.667 649.619C498.667 651.46 497.174 652.952 495.333 652.952 493.492 652.952 492 651.46 492 649.619 492 647.778 493.492 646.286 495.333 646.286 497.174 646.286 498.667 647.778 498.667 649.619Z" stroke="#ED7D31" stroke-linejoin="round" stroke-miterlimit="10" fill="#ED7D31"/></g><g clip-path="url(#clip8)"><text fill="#595959" font-family="Arial,Arial_MSFontService,sans-serif" font-weight="400" transform="translate(60.8334 712)">-653.98</text></g><g clip-path="url(#clip9)"><text fill="#595959" font-family="Arial,Arial_MSFontService,sans-serif" font-weight="400" transform="translate(60.8334 662)">-653.96</text></g><g clip-path="url(#clip10)"><text fill="#595959" font-family="Arial,Arial_MSFontService,sans-serif" font-weight="400" transform="translate(60.8334 612)">-653.94</text></g><g clip-path="url(#clip11)"><text fill="#595959" font-family="Arial,Arial_MSFontService,sans-serif" font-weight="400" transform="translate(60.8334 562)">-653.92</text></g><g clip-path="url(#clip12)"><text fill="#595959" font-family="Arial,Arial_MSFontService,sans-serif" font-weight="400" transform="translate(67.5068 512)">-653.9</text></g><g clip-path="url(#clip13)"><text fill="#595959" font-family="Arial,Arial_MSFontService,sans-serif" font-weight="400" transform="translate(60.8334 462)">-653.88</text></g><g clip-path="url(#clip14)"><text fill="#595959" font-family="Arial,Arial_MSFontService,sans-serif" font-weight="400" transform="translate(60.8334 411)">-653.86</text></g><g clip-path="url(#clip15)"><text fill="#595959" font-family="Arial,Arial_MSFontService,sans-serif" font-weight="400" transform="matrix(0.707107 -0.707107 0.707107 0.707107 112.59 740)">start</text></g><g clip-path="url(#clip16)"><text fill="#595959" font-family="Arial,Arial_MSFontService,sans-serif" font-weight="400" transform="matrix(0.707107 -0.707107 0.707107 0.707107 139.104 742)">INT1</text></g><g clip-path="url(#clip17)"><text fill="#595959" font-family="Arial,Arial_MSFontService,sans-serif" font-weight="400" transform="matrix(0.707107 -0.707107 0.707107 0.707107 167.508 742)">INT2</text></g><g clip-path="url(#clip18)"><text fill="#595959" font-family="Arial,Arial_MSFontService,sans-serif" font-weight="400" transform="matrix(0.707107 -0.707107 0.707107 0.707107 195.911 742)">INT3</text></g><g clip-path="url(#clip19)"><text fill="#595959" font-family="Arial,Arial_MSFontService,sans-serif" font-weight="400" transform="matrix(0.707107 -0.707107 0.707107 0.707107 224.315 742)">INT4</text></g><g clip-path="url(#clip20)"><text fill="#595959" font-family="Arial,Arial_MSFontService,sans-serif" font-weight="400" transform="matrix(0.707107 -0.707107 0.707107 0.707107 252.719 742)">INT5</text></g><g clip-path="url(#clip21)"><text fill="#595959" font-family="Arial,Arial_MSFontService,sans-serif" font-weight="400" transform="matrix(0.707107 -0.707107 0.707107 0.707107 281.123 742)">INT6</text></g><g clip-path="url(#clip22)"><text fill="#595959" font-family="Arial,Arial_MSFontService,sans-serif" font-weight="400" transform="matrix(0.707107 -0.707107 0.707107 0.707107 309.526 742)">INT7</text></g><g clip-path="url(#clip23)"><text fill="#595959" font-family="Arial,Arial_MSFontService,sans-serif" font-weight="400" transform="matrix(0.707107 -0.707107 0.707107 0.707107 337.93 742)">INT8</text></g><g clip-path="url(#clip24)"><text fill="#595959" font-family="Arial,Arial_MSFontService,sans-serif" font-weight="400" transform="matrix(0.707107 -0.707107 0.707107 0.707107 366.334 742)">INT9</text></g><g clip-path="url(#clip25)"><text fill="#595959" font-family="Arial,Arial_MSFontService,sans-serif" font-weight="400" transform="matrix(0.707107 -0.707107 0.707107 0.707107 390.019 746)">INT10</text></g><g clip-path="url(#clip26)"><text fill="#595959" font-family="Arial,Arial_MSFontService,sans-serif" font-weight="400" transform="matrix(0.707107 -0.707107 0.707107 0.707107 418.423 746)">INT11</text></g><g clip-path="url(#clip27)"><text fill="#595959" font-family="Arial,Arial_MSFontService,sans-serif" font-weight="400" transform="matrix(0.707107 -0.707107 0.707107 0.707107 446.827 746)">INT12</text></g><g clip-path="url(#clip28)"><text fill="#595959" font-family="Arial,Arial_MSFontService,sans-serif" font-weight="400" transform="matrix(0.707107 -0.707107 0.707107 0.707107 484.182 737)">end</text></g><g clip-path="url(#clip29)"><path d="M392 423 418 423" stroke="#4472C4" stroke-width="2" stroke-linecap="round" stroke-linejoin="round" stroke-miterlimit="10" fill="none" fill-rule="evenodd"/></g><g clip-path="url(#clip30)"><path d="M408.5 423C408.5 424.933 406.933 426.5 405 426.5 403.067 426.5 401.5 424.933 401.5 423 401.5 421.067 403.067 419.5 405 419.5 406.933 419.5 408.5 421.067 408.5 423Z" stroke="#4472C4" stroke-linejoin="round" stroke-miterlimit="10" fill="#4472C4"/></g><g clip-path="url(#clip31)"><text fill="#595959" font-family="Arial,Arial_MSFontService,sans-serif" font-weight="400" transform="translate(420.793 427)">BFGS 30 step</text></g><g clip-path="url(#clip32)"><path d="M392 445 418 445" stroke="#ED7D31" stroke-width="2" stroke-linecap="round" stroke-linejoin="round" stroke-miterlimit="10" fill="none" fill-rule="evenodd"/></g><g clip-path="url(#clip33)"><path d="M408.5 445C408.5 446.933 406.933 448.5 405 448.5 403.067 448.5 401.5 446.933 401.5 445 401.5 443.067 403.067 441.5 405 441.5 406.933 441.5 408.5 443.067 408.5 445Z" stroke="#ED7D31" stroke-linejoin="round" stroke-miterlimit="10" fill="#ED7D31"/></g><g clip-path="url(#clip34)"><text fill="#595959" font-family="Arial,Arial_MSFontService,sans-serif" font-weight="400" transform="translate(420.793 449)">FIRE 50 step</text></g></g></svg>