<svg width="473" height="365" xmlns="http://www.w3.org/2000/svg" xmlns:xlink="http://www.w3.org/1999/xlink" overflow="hidden"><defs><clipPath id="clip0"><rect x="654" y="-1" width="473" height="365"/></clipPath><clipPath id="clip1"><rect x="654" y="0" width="472" height="363"/></clipPath><clipPath id="clip2"><rect x="654" y="0" width="472" height="363"/></clipPath><clipPath id="clip3"><rect x="654" y="0" width="472" height="363"/></clipPath><clipPath id="clip4"><rect x="714" y="14" width="398" height="302"/></clipPath><clipPath id="clip5"><rect x="654" y="0" width="472" height="363"/></clipPath><clipPath id="clip6"><rect x="714" y="14" width="398" height="302"/></clipPath><clipPath id="clip7"><rect x="654" y="0" width="472" height="363"/></clipPath><clipPath id="clip8"><rect x="714" y="14" width="398" height="302"/></clipPath><clipPath id="clip9"><rect x="654" y="0" width="472" height="363"/></clipPath><clipPath id="clip10"><rect x="654" y="0" width="472" height="363"/></clipPath><clipPath id="clip11"><rect x="654" y="0" width="472" height="363"/></clipPath><clipPath id="clip12"><rect x="654" y="0" width="472" height="363"/></clipPath><clipPath id="clip13"><rect x="654" y="0" width="472" height="363"/></clipPath><clipPath id="clip14"><rect x="654" y="0" width="472" height="363"/></clipPath><clipPath id="clip15"><rect x="654" y="0" width="472" height="363"/></clipPath><clipPath id="clip16"><rect x="654" y="0" width="472" height="363"/></clipPath><clipPath id="clip17"><rect x="654" y="0" width="472" height="363"/></clipPath><clipPath id="clip18"><rect x="654" y="0" width="472" height="363"/></clipPath><clipPath id="clip19"><rect x="654" y="0" width="472" height="363"/></clipPath><clipPath id="clip20"><rect x="654" y="0" width="472" height="363"/></clipPath><clipPath id="clip21"><rect x="654" y="0" width="472" height="363"/></clipPath><clipPath id="clip22"><rect x="654" y="0" width="472" height="363"/></clipPath><clipPath id="clip23"><rect x="654" y="0" width="472" height="363"/></clipPath><clipPath id="clip24"><rect x="654" y="0" width="472" height="363"/></clipPath><clipPath id="clip25"><rect x="654" y="0" width="472" height="363"/></clipPath><clipPath id="clip26"><rect x="654" y="0" width="472" height="363"/></clipPath><clipPath id="clip27"><rect x="654" y="0" width="472" height="363"/></clipPath><clipPath id="clip28"><rect x="654" y="0" width="472" height="363"/></clipPath><clipPath id="clip29"><rect x="654" y="0" width="472" height="363"/></clipPath><clipPath id="clip30"><rect x="654" y="0" width="472" height="363"/></clipPath><clipPath id="clip31"><rect x="654" y="0" width="472" height="363"/></clipPath><clipPath id="clip32"><rect x="654" y="0" width="472" height="363"/></clipPath><clipPath id="clip33"><rect x="654" y="0" width="472" height="363"/></clipPath><clipPath id="clip34"><rect x="654" y="0" width="472" height="363"/></clipPath><clipPath id="clip35"><rect x="654" y="0" width="472" height="363"/></clipPath><clipPath id="clip36"><rect x="654" y="0" width="472" height="363"/></clipPath><clipPath id="clip37"><rect x="654" y="0" width="472" height="363"/></clipPath><clipPath id="clip38"><rect x="654" y="0" width="472" height="363"/></clipPath><clipPath id="clip39"><rect x="654" y="0" width="472" height="363"/></clipPath></defs><g clip-path="url(#clip0)" transform="translate(-654 1)"><rect x="655" y="0" width="471" height="363" fill="#FFFFFF"/><g clip-path="url(#clip1)"><path d="M714.5 315.5 1111.5 315.5M714.5 264.5 1111.5 264.5M714.5 214.5 1111.5 214.5M714.5 164.5 1111.5 164.5M714.5 114.5 1111.5 114.5M714.5 64.5001 1111.5 64.5001M714.5 14.5001 1111.5 14.5001" stroke="#D9D9D9" stroke-linejoin="round" stroke-miterlimit="10" fill="none"/></g><g clip-path="url(#clip2)"><path d="M0 0 0.000104987 301" stroke="#404040" stroke-width="1.66667" stroke-linejoin="round" stroke-miterlimit="10" fill="none" fill-rule="evenodd" transform="matrix(1 0 0 -1 714 315)"/></g><g clip-path="url(#clip3)"><path d="M714 315 1112 315" stroke="#404040" stroke-width="1.66667" stroke-linejoin="round" stroke-miterlimit="10" fill="none" fill-rule="evenodd"/></g><g clip-path="url(#clip4)"><path d="M728 105 757 102 785 87 814 131 842 137 870 142 899 117 927 178 956 210 984 223 1012 237 1041 248 1069 254 1098 256" stroke="#4472C4" stroke-width="2" stroke-linecap="round" stroke-linejoin="round" stroke-miterlimit="10" fill="none"/></g><g clip-path="url(#clip5)"><path d="M731.667 105.167C731.667 107.008 730.174 108.5 728.333 108.5 726.492 108.5 725 107.008 725 105.167 725 103.326 726.492 101.833 728.333 101.833 730.174 101.833 731.667 103.326 731.667 105.167Z" stroke="#4472C4" stroke-linejoin="round" stroke-miterlimit="10" fill="#4472C4"/><path d="M760.167 101.833C760.167 103.674 758.674 105.167 756.833 105.167 754.992 105.167 753.5 103.674 753.5 101.833 753.5 99.9923 754.992 98.4999 756.833 98.4999 758.674 98.4999 760.167 99.9923 760.167 101.833Z" stroke="#4472C4" stroke-linejoin="round" stroke-miterlimit="10" fill="#4472C4"/><path d="M788.5 87.3333C788.5 89.1743 787.008 90.6667 785.167 90.6667 783.326 90.6667 781.833 89.1743 781.833 87.3333 781.833 85.4924 783.326 84 785.167 84 787.008 84 788.5 85.4924 788.5 87.3333Z" stroke="#4472C4" stroke-linejoin="round" stroke-miterlimit="10" fill="#4472C4"/><path d="M817 131.167C817 133.008 815.508 134.5 813.667 134.5 811.826 134.5 810.333 133.008 810.333 131.167 810.333 129.326 811.826 127.833 813.667 127.833 815.508 127.833 817 129.326 817 131.167Z" stroke="#4472C4" stroke-linejoin="round" stroke-miterlimit="10" fill="#4472C4"/><path d="M845.333 136.667C845.333 138.508 843.841 140 842 140 840.159 140 838.667 138.508 838.667 136.667 838.667 134.826 840.159 133.333 842 133.333 843.841 133.333 845.333 134.826 845.333 136.667Z" stroke="#4472C4" stroke-linejoin="round" stroke-miterlimit="10" fill="#4472C4"/><path d="M873.667 141.833C873.667 143.674 872.174 145.167 870.333 145.167 868.492 145.167 867 143.674 867 141.833 867 139.992 868.492 138.5 870.333 138.5 872.174 138.5 873.667 139.992 873.667 141.833Z" stroke="#4472C4" stroke-linejoin="round" stroke-miterlimit="10" fill="#4472C4"/><path d="M902.167 116.833C902.167 118.674 900.674 120.167 898.833 120.167 896.992 120.167 895.5 118.674 895.5 116.833 895.5 114.992 896.992 113.5 898.833 113.5 900.674 113.5 902.167 114.992 902.167 116.833Z" stroke="#4472C4" stroke-linejoin="round" stroke-miterlimit="10" fill="#4472C4"/><path d="M930.5 177.5C930.5 179.341 929.008 180.833 927.167 180.833 925.326 180.833 923.833 179.341 923.833 177.5 923.833 175.659 925.326 174.167 927.167 174.167 929.008 174.167 930.5 175.659 930.5 177.5Z" stroke="#4472C4" stroke-linejoin="round" stroke-miterlimit="10" fill="#4472C4"/><path d="M959 209.833C959 211.674 957.508 213.167 955.667 213.167 953.826 213.167 952.333 211.674 952.333 209.833 952.333 207.992 953.826 206.5 955.667 206.5 957.508 206.5 959 207.992 959 209.833Z" stroke="#4472C4" stroke-linejoin="round" stroke-miterlimit="10" fill="#4472C4"/><path d="M987.333 223.333C987.333 225.174 985.841 226.667 984 226.667 982.159 226.667 980.667 225.174 980.667 223.333 980.667 221.492 982.159 220 984 220 985.841 220 987.333 221.492 987.333 223.333Z" stroke="#4472C4" stroke-linejoin="round" stroke-miterlimit="10" fill="#4472C4"/><path d="M1015.83 237C1015.83 238.841 1014.34 240.333 1012.5 240.333 1010.66 240.333 1009.17 238.841 1009.17 237 1009.17 235.159 1010.66 233.667 1012.5 233.667 1014.34 233.667 1015.83 235.159 1015.83 237Z" stroke="#4472C4" stroke-linejoin="round" stroke-miterlimit="10" fill="#4472C4"/><path d="M1044.17 248.333C1044.17 250.174 1042.67 251.667 1040.83 251.667 1038.99 251.667 1037.5 250.174 1037.5 248.333 1037.5 246.492 1038.99 245 1040.83 245 1042.67 245 1044.17 246.492 1044.17 248.333Z" stroke="#4472C4" stroke-linejoin="round" stroke-miterlimit="10" fill="#4472C4"/><path d="M1072.5 254.333C1072.5 256.174 1071.01 257.667 1069.17 257.667 1067.33 257.667 1065.83 256.174 1065.83 254.333 1065.83 252.492 1067.33 251 1069.17 251 1071.01 251 1072.5 252.492 1072.5 254.333Z" stroke="#4472C4" stroke-linejoin="round" stroke-miterlimit="10" fill="#4472C4"/><path d="M1101 256.333C1101 258.174 1099.51 259.667 1097.67 259.667 1095.83 259.667 1094.33 258.174 1094.33 256.333 1094.33 254.492 1095.83 253 1097.67 253 1099.51 253 1101 254.492 1101 256.333Z" stroke="#4472C4" stroke-linejoin="round" stroke-miterlimit="10" fill="#4472C4"/></g><g clip-path="url(#clip6)"><path d="M728 105 757 101 785 84 814 124 842 129 870 136 899 48 927 180 956 200 984 215 1012 231 1041 245 1069 254 1098 256" stroke="#ED7D31" stroke-width="2" stroke-linecap="round" stroke-linejoin="round" stroke-miterlimit="10" fill="none"/></g><g clip-path="url(#clip7)"><path d="M731.667 105.167C731.667 107.008 730.174 108.5 728.333 108.5 726.492 108.5 725 107.008 725 105.167 725 103.326 726.492 101.833 728.333 101.833 730.174 101.833 731.667 103.326 731.667 105.167Z" stroke="#ED7D31" stroke-linejoin="round" stroke-miterlimit="10" fill="#ED7D31"/><path d="M760.167 101C760.167 102.841 758.674 104.333 756.833 104.333 754.992 104.333 753.5 102.841 753.5 101 753.5 99.159 754.992 97.6667 756.833 97.6667 758.674 97.6667 760.167 99.159 760.167 101Z" stroke="#ED7D31" stroke-linejoin="round" stroke-miterlimit="10" fill="#ED7D31"/><path d="M788.5 84C788.5 85.8409 787.008 87.3333 785.167 87.3333 783.326 87.3333 781.833 85.8409 781.833 84 781.833 82.159 783.326 80.6667 785.167 80.6667 787.008 80.6667 788.5 82.159 788.5 84Z" stroke="#ED7D31" stroke-linejoin="round" stroke-miterlimit="10" fill="#ED7D31"/><path d="M817 124.5C817 126.341 815.508 127.833 813.667 127.833 811.826 127.833 810.333 126.341 810.333 124.5 810.333 122.659 811.826 121.167 813.667 121.167 815.508 121.167 817 122.659 817 124.5Z" stroke="#ED7D31" stroke-linejoin="round" stroke-miterlimit="10" fill="#ED7D31"/><path d="M845.333 129.5C845.333 131.341 843.841 132.833 842 132.833 840.159 132.833 838.667 131.341 838.667 129.5 838.667 127.659 840.159 126.167 842 126.167 843.841 126.167 845.333 127.659 845.333 129.5Z" stroke="#ED7D31" stroke-linejoin="round" stroke-miterlimit="10" fill="#ED7D31"/><path d="M873.667 136.5C873.667 138.341 872.174 139.833 870.333 139.833 868.492 139.833 867 138.341 867 136.5 867 134.659 868.492 133.167 870.333 133.167 872.174 133.167 873.667 134.659 873.667 136.5Z" stroke="#ED7D31" stroke-linejoin="round" stroke-miterlimit="10" fill="#ED7D31"/><path d="M902.167 48.3333C902.167 50.1743 900.674 51.6667 898.833 51.6667 896.992 51.6667 895.5 50.1743 895.5 48.3333 895.5 46.4924 896.992 45 898.833 45 900.674 45 902.167 46.4924 902.167 48.3333Z" stroke="#ED7D31" stroke-linejoin="round" stroke-miterlimit="10" fill="#ED7D31"/><path d="M930.5 180.167C930.5 182.008 929.008 183.5 927.167 183.5 925.326 183.5 923.833 182.008 923.833 180.167 923.833 178.326 925.326 176.833 927.167 176.833 929.008 176.833 930.5 178.326 930.5 180.167Z" stroke="#ED7D31" stroke-linejoin="round" stroke-miterlimit="10" fill="#ED7D31"/><path d="M959 200C959 201.841 957.508 203.333 955.667 203.333 953.826 203.333 952.333 201.841 952.333 200 952.333 198.159 953.826 196.667 955.667 196.667 957.508 196.667 959 198.159 959 200Z" stroke="#ED7D31" stroke-linejoin="round" stroke-miterlimit="10" fill="#ED7D31"/><path d="M987.333 214.5C987.333 216.341 985.841 217.833 984 217.833 982.159 217.833 980.667 216.341 980.667 214.5 980.667 212.659 982.159 211.167 984 211.167 985.841 211.167 987.333 212.659 987.333 214.5Z" stroke="#ED7D31" stroke-linejoin="round" stroke-miterlimit="10" fill="#ED7D31"/><path d="M1015.83 231.167C1015.83 233.008 1014.34 234.5 1012.5 234.5 1010.66 234.5 1009.17 233.008 1009.17 231.167 1009.17 229.326 1010.66 227.833 1012.5 227.833 1014.34 227.833 1015.83 229.326 1015.83 231.167Z" stroke="#ED7D31" stroke-linejoin="round" stroke-miterlimit="10" fill="#ED7D31"/><path d="M1044.17 245.333C1044.17 247.174 1042.67 248.667 1040.83 248.667 1038.99 248.667 1037.5 247.174 1037.5 245.333 1037.5 243.492 1038.99 242 1040.83 242 1042.67 242 1044.17 243.492 1044.17 245.333Z" stroke="#ED7D31" stroke-linejoin="round" stroke-miterlimit="10" fill="#ED7D31"/><path d="M1072.5 253.667C1072.5 255.508 1071.01 257 1069.17 257 1067.33 257 1065.83 255.508 1065.83 253.667 1065.83 251.826 1067.33 250.333 1069.17 250.333 1071.01 250.333 1072.5 251.826 1072.5 253.667Z" stroke="#ED7D31" stroke-linejoin="round" stroke-miterlimit="10" fill="#ED7D31"/><path d="M1101 256.333C1101 258.174 1099.51 259.667 1097.67 259.667 1095.83 259.667 1094.33 258.174 1094.33 256.333 1094.33 254.492 1095.83 253 1097.67 253 1099.51 253 1101 254.492 1101 256.333Z" stroke="#ED7D31" stroke-linejoin="round" stroke-miterlimit="10" fill="#ED7D31"/></g><g clip-path="url(#clip8)"><path d="M728 105 757 100 785 84 814 131 842 149 870 128 899 66 927 147 956 186 984 210 1012 229 1041 243 1069 253 1098 256" stroke="#A5A5A5" stroke-width="2" stroke-linecap="round" stroke-linejoin="round" stroke-miterlimit="10" fill="none"/></g><g clip-path="url(#clip9)"><path d="M731.667 105.167C731.667 107.008 730.174 108.5 728.333 108.5 726.492 108.5 725 107.008 725 105.167 725 103.326 726.492 101.833 728.333 101.833 730.174 101.833 731.667 103.326 731.667 105.167Z" stroke="#A5A5A5" stroke-linejoin="round" stroke-miterlimit="10" fill="#A5A5A5"/><path d="M760.167 100.5C760.167 102.341 758.674 103.833 756.833 103.833 754.992 103.833 753.5 102.341 753.5 100.5 753.5 98.659 754.992 97.1666 756.833 97.1666 758.674 97.1666 760.167 98.659 760.167 100.5Z" stroke="#A5A5A5" stroke-linejoin="round" stroke-miterlimit="10" fill="#A5A5A5"/><path d="M788.5 84C788.5 85.8409 787.008 87.3333 785.167 87.3333 783.326 87.3333 781.833 85.8409 781.833 84 781.833 82.159 783.326 80.6667 785.167 80.6667 787.008 80.6667 788.5 82.159 788.5 84Z" stroke="#A5A5A5" stroke-linejoin="round" stroke-miterlimit="10" fill="#A5A5A5"/><path d="M817 130.833C817 132.674 815.508 134.167 813.667 134.167 811.826 134.167 810.333 132.674 810.333 130.833 810.333 128.992 811.826 127.5 813.667 127.5 815.508 127.5 817 128.992 817 130.833Z" stroke="#A5A5A5" stroke-linejoin="round" stroke-miterlimit="10" fill="#A5A5A5"/><path d="M845.333 149.167C845.333 151.008 843.841 152.5 842 152.5 840.159 152.5 838.667 151.008 838.667 149.167 838.667 147.326 840.159 145.833 842 145.833 843.841 145.833 845.333 147.326 845.333 149.167Z" stroke="#A5A5A5" stroke-linejoin="round" stroke-miterlimit="10" fill="#A5A5A5"/><path d="M873.667 128.167C873.667 130.008 872.174 131.5 870.333 131.5 868.492 131.5 867 130.008 867 128.167 867 126.326 868.492 124.833 870.333 124.833 872.174 124.833 873.667 126.326 873.667 128.167Z" stroke="#A5A5A5" stroke-linejoin="round" stroke-miterlimit="10" fill="#A5A5A5"/><path d="M902.167 65.4999C902.167 67.3409 900.674 68.8333 898.833 68.8333 896.992 68.8333 895.5 67.3409 895.5 65.4999 895.5 63.659 896.992 62.1666 898.833 62.1666 900.674 62.1666 902.167 63.659 902.167 65.4999Z" stroke="#A5A5A5" stroke-linejoin="round" stroke-miterlimit="10" fill="#A5A5A5"/><path d="M930.5 147C930.5 148.841 929.008 150.333 927.167 150.333 925.326 150.333 923.833 148.841 923.833 147 923.833 145.159 925.326 143.667 927.167 143.667 929.008 143.667 930.5 145.159 930.5 147Z" stroke="#A5A5A5" stroke-linejoin="round" stroke-miterlimit="10" fill="#A5A5A5"/><path d="M959 186.167C959 188.008 957.508 189.5 955.667 189.5 953.826 189.5 952.333 188.008 952.333 186.167 952.333 184.326 953.826 182.833 955.667 182.833 957.508 182.833 959 184.326 959 186.167Z" stroke="#A5A5A5" stroke-linejoin="round" stroke-miterlimit="10" fill="#A5A5A5"/><path d="M987.333 209.833C987.333 211.674 985.841 213.167 984 213.167 982.159 213.167 980.667 211.674 980.667 209.833 980.667 207.992 982.159 206.5 984 206.5 985.841 206.5 987.333 207.992 987.333 209.833Z" stroke="#A5A5A5" stroke-linejoin="round" stroke-miterlimit="10" fill="#A5A5A5"/><path d="M1015.83 229C1015.83 230.841 1014.34 232.333 1012.5 232.333 1010.66 232.333 1009.17 230.841 1009.17 229 1009.17 227.159 1010.66 225.667 1012.5 225.667 1014.34 225.667 1015.83 227.159 1015.83 229Z" stroke="#A5A5A5" stroke-linejoin="round" stroke-miterlimit="10" fill="#A5A5A5"/><path d="M1044.17 243.333C1044.17 245.174 1042.67 246.667 1040.83 246.667 1038.99 246.667 1037.5 245.174 1037.5 243.333 1037.5 241.492 1038.99 240 1040.83 240 1042.67 240 1044.17 241.492 1044.17 243.333Z" stroke="#A5A5A5" stroke-linejoin="round" stroke-miterlimit="10" fill="#A5A5A5"/><path d="M1072.5 252.667C1072.5 254.508 1071.01 256 1069.17 256 1067.33 256 1065.83 254.508 1065.83 252.667 1065.83 250.826 1067.33 249.333 1069.17 249.333 1071.01 249.333 1072.5 250.826 1072.5 252.667Z" stroke="#A5A5A5" stroke-linejoin="round" stroke-miterlimit="10" fill="#A5A5A5"/><path d="M1101 256.333C1101 258.174 1099.51 259.667 1097.67 259.667 1095.83 259.667 1094.33 258.174 1094.33 256.333 1094.33 254.492 1095.83 253 1097.67 253 1099.51 253 1101 254.492 1101 256.333Z" stroke="#A5A5A5" stroke-linejoin="round" stroke-miterlimit="10" fill="#A5A5A5"/></g><g clip-path="url(#clip10)"><text fill="#595959" font-family="Arial,Arial_MSFontService,sans-serif" font-weight="400" transform="translate(663.167 319)">-653.98</text></g><g clip-path="url(#clip11)"><text fill="#595959" font-family="Arial,Arial_MSFontService,sans-serif" font-weight="400" transform="translate(663.167 269)">-653.96</text></g><g clip-path="url(#clip12)"><text fill="#595959" font-family="Arial,Arial_MSFontService,sans-serif" font-weight="400" transform="translate(663.167 219)">-653.94</text></g><g clip-path="url(#clip13)"><text fill="#595959" font-family="Arial,Arial_MSFontService,sans-serif" font-weight="400" transform="translate(663.167 169)">-653.92</text></g><g clip-path="url(#clip14)"><text fill="#595959" font-family="Arial,Arial_MSFontService,sans-serif" font-weight="400" transform="translate(669.84 118)">-653.9</text></g><g clip-path="url(#clip15)"><text fill="#595959" font-family="Arial,Arial_MSFontService,sans-serif" font-weight="400" transform="translate(663.167 68)">-653.88</text></g><g clip-path="url(#clip16)"><text fill="#595959" font-family="Arial,Arial_MSFontService,sans-serif" font-weight="400" transform="translate(663.167 18)">-653.86</text></g><g clip-path="url(#clip17)"><text fill="#595959" font-family="Arial,Arial_MSFontService,sans-serif" font-weight="400" transform="matrix(0.707107 -0.707107 0.707107 0.707107 714.924 347)">start</text></g><g clip-path="url(#clip18)"><text fill="#595959" font-family="Arial,Arial_MSFontService,sans-serif" font-weight="400" transform="matrix(0.707107 -0.707107 0.707107 0.707107 741.437 348)">INT1</text></g><g clip-path="url(#clip19)"><text fill="#595959" font-family="Arial,Arial_MSFontService,sans-serif" font-weight="400" transform="matrix(0.707107 -0.707107 0.707107 0.707107 769.841 348)">INT2</text></g><g clip-path="url(#clip20)"><text fill="#595959" font-family="Arial,Arial_MSFontService,sans-serif" font-weight="400" transform="matrix(0.707107 -0.707107 0.707107 0.707107 798.245 348)">INT3</text></g><g clip-path="url(#clip21)"><text fill="#595959" font-family="Arial,Arial_MSFontService,sans-serif" font-weight="400" transform="matrix(0.707107 -0.707107 0.707107 0.707107 826.648 348)">INT4</text></g><g clip-path="url(#clip22)"><text fill="#595959" font-family="Arial,Arial_MSFontService,sans-serif" font-weight="400" transform="matrix(0.707107 -0.707107 0.707107 0.707107 855.052 348)">INT5</text></g><g clip-path="url(#clip23)"><text fill="#595959" font-family="Arial,Arial_MSFontService,sans-serif" font-weight="400" transform="matrix(0.707107 -0.707107 0.707107 0.707107 883.456 348)">INT6</text></g><g clip-path="url(#clip24)"><text fill="#595959" font-family="Arial,Arial_MSFontService,sans-serif" font-weight="400" transform="matrix(0.707107 -0.707107 0.707107 0.707107 911.86 348)">INT7</text></g><g clip-path="url(#clip25)"><text fill="#595959" font-family="Arial,Arial_MSFontService,sans-serif" font-weight="400" transform="matrix(0.707107 -0.707107 0.707107 0.707107 940.264 348)">INT8</text></g><g clip-path="url(#clip26)"><text fill="#595959" font-family="Arial,Arial_MSFontService,sans-serif" font-weight="400" transform="matrix(0.707107 -0.707107 0.707107 0.707107 968.667 348)">INT9</text></g><g clip-path="url(#clip27)"><text fill="#595959" font-family="Arial,Arial_MSFontService,sans-serif" font-weight="400" transform="matrix(0.707107 -0.707107 0.707107 0.707107 992.352 353)">INT10</text></g><g clip-path="url(#clip28)"><text fill="#595959" font-family="Arial,Arial_MSFontService,sans-serif" font-weight="400" transform="matrix(0.707107 -0.707107 0.707107 0.707107 1020.76 353)">INT11</text></g><g clip-path="url(#clip29)"><text fill="#595959" font-family="Arial,Arial_MSFontService,sans-serif" font-weight="400" transform="matrix(0.707107 -0.707107 0.707107 0.707107 1049.16 353)">INT12</text></g><g clip-path="url(#clip30)"><text fill="#595959" font-family="Arial,Arial_MSFontService,sans-serif" font-weight="400" transform="matrix(0.707107 -0.707107 0.707107 0.707107 1086.52 344)">end</text></g><g clip-path="url(#clip31)"><path d="M1026 82 1052 82.0001" stroke="#4472C4" stroke-width="2" stroke-linecap="round" stroke-linejoin="round" stroke-miterlimit="10" fill="none" fill-rule="evenodd"/></g><g clip-path="url(#clip32)"><path d="M1042.5 82.0001C1042.5 83.9331 1040.93 85.5001 1039 85.5001 1037.07 85.5001 1035.5 83.9331 1035.5 82.0001 1035.5 80.0671 1037.07 78.5001 1039 78.5001 1040.93 78.5001 1042.5 80.0671 1042.5 82.0001Z" stroke="#4472C4" stroke-linejoin="round" stroke-miterlimit="10" fill="#4472C4"/></g><g clip-path="url(#clip33)"><text fill="#595959" font-family="Arial,Arial_MSFontService,sans-serif" font-weight="400" transform="translate(1054.48 86)">reg</text></g><g clip-path="url(#clip34)"><path d="M1026 106 1052 106" stroke="#ED7D31" stroke-width="2" stroke-linecap="round" stroke-linejoin="round" stroke-miterlimit="10" fill="none" fill-rule="evenodd"/></g><g clip-path="url(#clip35)"><path d="M1042.5 106C1042.5 107.933 1040.93 109.5 1039 109.5 1037.07 109.5 1035.5 107.933 1035.5 106 1035.5 104.067 1037.07 102.5 1039 102.5 1040.93 102.5 1042.5 104.067 1042.5 106Z" stroke="#ED7D31" stroke-linejoin="round" stroke-miterlimit="10" fill="#ED7D31"/></g><g clip-path="url(#clip36)"><text fill="#595959" font-family="Arial,Arial_MSFontService,sans-serif" font-weight="400" transform="translate(1054.48 110)">org</text></g><g clip-path="url(#clip37)"><path d="M1026 130 1052 130" stroke="#A5A5A5" stroke-width="2" stroke-linecap="round" stroke-linejoin="round" stroke-miterlimit="10" fill="none" fill-rule="evenodd"/></g><g clip-path="url(#clip38)"><path d="M1042.5 130C1042.5 131.933 1040.93 133.5 1039 133.5 1037.07 133.5 1035.5 131.933 1035.5 130 1035.5 128.067 1037.07 126.5 1039 126.5 1040.93 126.5 1042.5 128.067 1042.5 130Z" stroke="#A5A5A5" stroke-linejoin="round" stroke-miterlimit="10" fill="#A5A5A5"/></g><g clip-path="url(#clip39)"><text fill="#595959" font-family="Arial,Arial_MSFontService,sans-serif" font-weight="400" transform="translate(1054.48 134)">ci-eb</text></g></g></svg>