<svg width="473" height="368" xmlns="http://www.w3.org/2000/svg" xmlns:xlink="http://www.w3.org/1999/xlink" overflow="hidden"><defs><clipPath id="clip0"><rect x="654" y="378" width="473" height="368"/></clipPath><clipPath id="clip1"><rect x="654" y="378" width="472" height="367"/></clipPath><clipPath id="clip2"><rect x="654" y="378" width="472" height="367"/></clipPath><clipPath id="clip3"><rect x="654" y="378" width="472" height="367"/></clipPath><clipPath id="clip4"><rect x="714" y="393" width="398" height="305"/></clipPath><clipPath id="clip5"><rect x="654" y="378" width="472" height="367"/></clipPath><clipPath id="clip6"><rect x="714" y="393" width="398" height="305"/></clipPath><clipPath id="clip7"><rect x="654" y="378" width="472" height="367"/></clipPath><clipPath id="clip8"><rect x="654" y="378" width="472" height="367"/></clipPath><clipPath id="clip9"><rect x="654" y="378" width="472" height="367"/></clipPath><clipPath id="clip10"><rect x="654" y="378" width="472" height="367"/></clipPath><clipPath id="clip11"><rect x="654" y="378" width="472" height="367"/></clipPath><clipPath id="clip12"><rect x="654" y="378" width="472" height="367"/></clipPath><clipPath id="clip13"><rect x="654" y="378" width="472" height="367"/></clipPath><clipPath id="clip14"><rect x="654" y="378" width="472" height="367"/></clipPath><clipPath id="clip15"><rect x="654" y="378" width="472" height="367"/></clipPath><clipPath id="clip16"><rect x="654" y="378" width="472" height="367"/></clipPath><clipPath id="clip17"><rect x="654" y="378" width="472" height="367"/></clipPath><clipPath id="clip18"><rect x="654" y="378" width="472" height="367"/></clipPath><clipPath id="clip19"><rect x="654" y="378" width="472" height="367"/></clipPath><clipPath id="clip20"><rect x="654" y="378" width="472" height="367"/></clipPath><clipPath id="clip21"><rect x="654" y="378" width="472" height="367"/></clipPath><clipPath id="clip22"><rect x="654" y="378" width="472" height="367"/></clipPath><clipPath id="clip23"><rect x="654" y="378" width="472" height="367"/></clipPath><clipPath id="clip24"><rect x="654" y="378" width="472" height="367"/></clipPath><clipPath id="clip25"><rect x="654" y="378" width="472" height="367"/></clipPath><clipPath id="clip26"><rect x="654" y="378" width="472" height="367"/></clipPath><clipPath id="clip27"><rect x="654" y="378" width="472" height="367"/></clipPath><clipPath id="clip28"><rect x="654" y="378" width="472" height="367"/></clipPath><clipPath id="clip29"><rect x="654" y="378" width="472" height="367"/></clipPath><clipPath id="clip30"><rect x="654" y="378" width="472" height="367"/></clipPath><clipPath id="clip31"><rect x="654" y="378" width="472" height="367"/></clipPath><clipPath id="clip32"><rect x="654" y="378" width="472" height="367"/></clipPath><clipPath id="clip33"><rect x="654" y="378" width="472" height="367"/></clipPath><clipPath id="clip34"><rect x="654" y="378" width="472" height="367"/></clipPath></defs><g clip-path="url(#clip0)" transform="translate(-654 -378)"><rect x="655" y="379" width="471" height="366" fill="#FFFFFF"/><g clip-path="url(#clip1)"><path d="M714.5 697.5 1111.5 697.5M714.5 646.5 1111.5 646.5M714.5 595.5 1111.5 595.5M714.5 545.5 1111.5 545.5M714.5 494.5 1111.5 494.5M714.5 443.5 1111.5 443.5M714.5 393.5 1111.5 393.5" stroke="#D9D9D9" stroke-linejoin="round" stroke-miterlimit="10" fill="none"/></g><g clip-path="url(#clip2)"><path d="M0 0 0.000104987 304" stroke="#404040" stroke-width="1.66667" stroke-linejoin="round" stroke-miterlimit="10" fill="none" fill-rule="evenodd" transform="matrix(1 0 0 -1 714 697)"/></g><g clip-path="url(#clip3)"><path d="M714 697 1112 697" stroke="#404040" stroke-width="1.66667" stroke-linejoin="round" stroke-miterlimit="10" fill="none" fill-rule="evenodd"/></g><g clip-path="url(#clip4)"><path d="M728 485 757 481 785 468 814 459 842 516 870 520 899 429 927 486 956 560 984 590 1012 611 1041 626 1069 635 1098 638" stroke="#4472C4" stroke-width="2" stroke-linecap="round" stroke-linejoin="round" stroke-miterlimit="10" fill="none"/></g><g clip-path="url(#clip5)"><path d="M731.667 485C731.667 486.841 730.174 488.333 728.333 488.333 726.492 488.333 725 486.841 725 485 725 483.159 726.492 481.667 728.333 481.667 730.174 481.667 731.667 483.159 731.667 485Z" stroke="#4472C4" stroke-linejoin="round" stroke-miterlimit="10" fill="#4472C4"/><path d="M760.167 481.167C760.167 483.008 758.674 484.5 756.833 484.5 754.992 484.5 753.5 483.008 753.5 481.167 753.5 479.326 754.992 477.833 756.833 477.833 758.674 477.833 760.167 479.326 760.167 481.167Z" stroke="#4472C4" stroke-linejoin="round" stroke-miterlimit="10" fill="#4472C4"/><path d="M788.5 467.667C788.5 469.508 787.008 471 785.167 471 783.326 471 781.833 469.508 781.833 467.667 781.833 465.826 783.326 464.333 785.167 464.333 787.008 464.333 788.5 465.826 788.5 467.667Z" stroke="#4472C4" stroke-linejoin="round" stroke-miterlimit="10" fill="#4472C4"/><path d="M817 458.833C817 460.674 815.508 462.167 813.667 462.167 811.826 462.167 810.333 460.674 810.333 458.833 810.333 456.992 811.826 455.5 813.667 455.5 815.508 455.5 817 456.992 817 458.833Z" stroke="#4472C4" stroke-linejoin="round" stroke-miterlimit="10" fill="#4472C4"/><path d="M845.333 516C845.333 517.841 843.841 519.333 842 519.333 840.159 519.333 838.667 517.841 838.667 516 838.667 514.159 840.159 512.667 842 512.667 843.841 512.667 845.333 514.159 845.333 516Z" stroke="#4472C4" stroke-linejoin="round" stroke-miterlimit="10" fill="#4472C4"/><path d="M873.667 520C873.667 521.841 872.174 523.333 870.333 523.333 868.492 523.333 867 521.841 867 520 867 518.159 868.492 516.667 870.333 516.667 872.174 516.667 873.667 518.159 873.667 520Z" stroke="#4472C4" stroke-linejoin="round" stroke-miterlimit="10" fill="#4472C4"/><path d="M902.167 428.667C902.167 430.508 900.674 432 898.833 432 896.992 432 895.5 430.508 895.5 428.667 895.5 426.826 896.992 425.333 898.833 425.333 900.674 425.333 902.167 426.826 902.167 428.667Z" stroke="#4472C4" stroke-linejoin="round" stroke-miterlimit="10" fill="#4472C4"/><path d="M930.5 486C930.5 487.841 929.008 489.333 927.167 489.333 925.326 489.333 923.833 487.841 923.833 486 923.833 484.159 925.326 482.667 927.167 482.667 929.008 482.667 930.5 484.159 930.5 486Z" stroke="#4472C4" stroke-linejoin="round" stroke-miterlimit="10" fill="#4472C4"/><path d="M959 560.167C959 562.008 957.508 563.5 955.667 563.5 953.826 563.5 952.333 562.008 952.333 560.167 952.333 558.326 953.826 556.833 955.667 556.833 957.508 556.833 959 558.326 959 560.167Z" stroke="#4472C4" stroke-linejoin="round" stroke-miterlimit="10" fill="#4472C4"/><path d="M987.333 589.833C987.333 591.674 985.841 593.167 984 593.167 982.159 593.167 980.667 591.674 980.667 589.833 980.667 587.992 982.159 586.5 984 586.5 985.841 586.5 987.333 587.992 987.333 589.833Z" stroke="#4472C4" stroke-linejoin="round" stroke-miterlimit="10" fill="#4472C4"/><path d="M1015.83 611.333C1015.83 613.174 1014.34 614.667 1012.5 614.667 1010.66 614.667 1009.17 613.174 1009.17 611.333 1009.17 609.492 1010.66 608 1012.5 608 1014.34 608 1015.83 609.492 1015.83 611.333Z" stroke="#4472C4" stroke-linejoin="round" stroke-miterlimit="10" fill="#4472C4"/><path d="M1044.17 625.5C1044.17 627.341 1042.67 628.833 1040.83 628.833 1038.99 628.833 1037.5 627.341 1037.5 625.5 1037.5 623.659 1038.99 622.167 1040.83 622.167 1042.67 622.167 1044.17 623.659 1044.17 625.5Z" stroke="#4472C4" stroke-linejoin="round" stroke-miterlimit="10" fill="#4472C4"/><path d="M1072.5 634.667C1072.5 636.508 1071.01 638 1069.17 638 1067.33 638 1065.83 636.508 1065.83 634.667 1065.83 632.826 1067.33 631.333 1069.17 631.333 1071.01 631.333 1072.5 632.826 1072.5 634.667Z" stroke="#4472C4" stroke-linejoin="round" stroke-miterlimit="10" fill="#4472C4"/><path d="M1101 637.833C1101 639.674 1099.51 641.167 1097.67 641.167 1095.83 641.167 1094.33 639.674 1094.33 637.833 1094.33 635.992 1095.83 634.5 1097.67 634.5 1099.51 634.5 1101 635.992 1101 637.833Z" stroke="#4472C4" stroke-linejoin="round" stroke-miterlimit="10" fill="#4472C4"/></g><g clip-path="url(#clip6)"><path d="M728 485 757 481 785 467 814 466 842 525 870 501 899 459 927 550 956 571 984 591 1012 612 1041 626 1069 635 1098 638" stroke="#ED7D31" stroke-width="2" stroke-linecap="round" stroke-linejoin="round" stroke-miterlimit="10" fill="none"/></g><g clip-path="url(#clip7)"><path d="M731.667 485C731.667 486.841 730.174 488.333 728.333 488.333 726.492 488.333 725 486.841 725 485 725 483.159 726.492 481.667 728.333 481.667 730.174 481.667 731.667 483.159 731.667 485Z" stroke="#ED7D31" stroke-linejoin="round" stroke-miterlimit="10" fill="#ED7D31"/><path d="M760.167 481.333C760.167 483.174 758.674 484.667 756.833 484.667 754.992 484.667 753.5 483.174 753.5 481.333 753.5 479.492 754.992 478 756.833 478 758.674 478 760.167 479.492 760.167 481.333Z" stroke="#ED7D31" stroke-linejoin="round" stroke-miterlimit="10" fill="#ED7D31"/><path d="M788.5 467.5C788.5 469.341 787.008 470.833 785.167 470.833 783.326 470.833 781.833 469.341 781.833 467.5 781.833 465.659 783.326 464.167 785.167 464.167 787.008 464.167 788.5 465.659 788.5 467.5Z" stroke="#ED7D31" stroke-linejoin="round" stroke-miterlimit="10" fill="#ED7D31"/><path d="M817 466C817 467.841 815.508 469.333 813.667 469.333 811.826 469.333 810.333 467.841 810.333 466 810.333 464.159 811.826 462.667 813.667 462.667 815.508 462.667 817 464.159 817 466Z" stroke="#ED7D31" stroke-linejoin="round" stroke-miterlimit="10" fill="#ED7D31"/><path d="M845.333 525.167C845.333 527.008 843.841 528.5 842 528.5 840.159 528.5 838.667 527.008 838.667 525.167 838.667 523.326 840.159 521.833 842 521.833 843.841 521.833 845.333 523.326 845.333 525.167Z" stroke="#ED7D31" stroke-linejoin="round" stroke-miterlimit="10" fill="#ED7D31"/><path d="M873.667 501.5C873.667 503.341 872.174 504.833 870.333 504.833 868.492 504.833 867 503.341 867 501.5 867 499.659 868.492 498.167 870.333 498.167 872.174 498.167 873.667 499.659 873.667 501.5Z" stroke="#ED7D31" stroke-linejoin="round" stroke-miterlimit="10" fill="#ED7D31"/><path d="M902.167 458.5C902.167 460.341 900.674 461.833 898.833 461.833 896.992 461.833 895.5 460.341 895.5 458.5 895.5 456.659 896.992 455.167 898.833 455.167 900.674 455.167 902.167 456.659 902.167 458.5Z" stroke="#ED7D31" stroke-linejoin="round" stroke-miterlimit="10" fill="#ED7D31"/><path d="M930.5 550.5C930.5 552.341 929.008 553.833 927.167 553.833 925.326 553.833 923.833 552.341 923.833 550.5 923.833 548.659 925.326 547.167 927.167 547.167 929.008 547.167 930.5 548.659 930.5 550.5Z" stroke="#ED7D31" stroke-linejoin="round" stroke-miterlimit="10" fill="#ED7D31"/><path d="M959 570.833C959 572.674 957.508 574.167 955.667 574.167 953.826 574.167 952.333 572.674 952.333 570.833 952.333 568.992 953.826 567.5 955.667 567.5 957.508 567.5 959 568.992 959 570.833Z" stroke="#ED7D31" stroke-linejoin="round" stroke-miterlimit="10" fill="#ED7D31"/><path d="M987.333 591.167C987.333 593.008 985.841 594.5 984 594.5 982.159 594.5 980.667 593.008 980.667 591.167 980.667 589.326 982.159 587.833 984 587.833 985.841 587.833 987.333 589.326 987.333 591.167Z" stroke="#ED7D31" stroke-linejoin="round" stroke-miterlimit="10" fill="#ED7D31"/><path d="M1015.83 612C1015.83 613.841 1014.34 615.333 1012.5 615.333 1010.66 615.333 1009.17 613.841 1009.17 612 1009.17 610.159 1010.66 608.667 1012.5 608.667 1014.34 608.667 1015.83 610.159 1015.83 612Z" stroke="#ED7D31" stroke-linejoin="round" stroke-miterlimit="10" fill="#ED7D31"/><path d="M1044.17 626C1044.17 627.841 1042.67 629.333 1040.83 629.333 1038.99 629.333 1037.5 627.841 1037.5 626 1037.5 624.159 1038.99 622.667 1040.83 622.667 1042.67 622.667 1044.17 624.159 1044.17 626Z" stroke="#ED7D31" stroke-linejoin="round" stroke-miterlimit="10" fill="#ED7D31"/><path d="M1072.5 634.667C1072.5 636.508 1071.01 638 1069.17 638 1067.33 638 1065.83 636.508 1065.83 634.667 1065.83 632.826 1067.33 631.333 1069.17 631.333 1071.01 631.333 1072.5 632.826 1072.5 634.667Z" stroke="#ED7D31" stroke-linejoin="round" stroke-miterlimit="10" fill="#ED7D31"/><path d="M1101 637.833C1101 639.674 1099.51 641.167 1097.67 641.167 1095.83 641.167 1094.33 639.674 1094.33 637.833 1094.33 635.992 1095.83 634.5 1097.67 634.5 1099.51 634.5 1101 635.992 1101 637.833Z" stroke="#ED7D31" stroke-linejoin="round" stroke-miterlimit="10" fill="#ED7D31"/></g><g clip-path="url(#clip8)"><text fill="#595959" font-family="Arial,Arial_MSFontService,sans-serif" font-weight="400" transform="translate(663.167 701)">-653.98</text></g><g clip-path="url(#clip9)"><text fill="#595959" font-family="Arial,Arial_MSFontService,sans-serif" font-weight="400" transform="translate(663.167 650)">-653.96</text></g><g clip-path="url(#clip10)"><text fill="#595959" font-family="Arial,Arial_MSFontService,sans-serif" font-weight="400" transform="translate(663.167 600)">-653.94</text></g><g clip-path="url(#clip11)"><text fill="#595959" font-family="Arial,Arial_MSFontService,sans-serif" font-weight="400" transform="translate(663.167 549)">-653.92</text></g><g clip-path="url(#clip12)"><text fill="#595959" font-family="Arial,Arial_MSFontService,sans-serif" font-weight="400" transform="translate(669.84 498)">-653.9</text></g><g clip-path="url(#clip13)"><text fill="#595959" font-family="Arial,Arial_MSFontService,sans-serif" font-weight="400" transform="translate(663.167 448)">-653.88</text></g><g clip-path="url(#clip14)"><text fill="#595959" font-family="Arial,Arial_MSFontService,sans-serif" font-weight="400" transform="translate(663.167 397)">-653.86</text></g><g clip-path="url(#clip15)"><text fill="#595959" font-family="Arial,Arial_MSFontService,sans-serif" font-weight="400" transform="matrix(0.707107 -0.707107 0.707107 0.707107 714.924 729)">start</text></g><g clip-path="url(#clip16)"><text fill="#595959" font-family="Arial,Arial_MSFontService,sans-serif" font-weight="400" transform="matrix(0.707107 -0.707107 0.707107 0.707107 741.437 730)">INT1</text></g><g clip-path="url(#clip17)"><text fill="#595959" font-family="Arial,Arial_MSFontService,sans-serif" font-weight="400" transform="matrix(0.707107 -0.707107 0.707107 0.707107 769.841 730)">INT2</text></g><g clip-path="url(#clip18)"><text fill="#595959" font-family="Arial,Arial_MSFontService,sans-serif" font-weight="400" transform="matrix(0.707107 -0.707107 0.707107 0.707107 798.245 730)">INT3</text></g><g clip-path="url(#clip19)"><text fill="#595959" font-family="Arial,Arial_MSFontService,sans-serif" font-weight="400" transform="matrix(0.707107 -0.707107 0.707107 0.707107 826.648 730)">INT4</text></g><g clip-path="url(#clip20)"><text fill="#595959" font-family="Arial,Arial_MSFontService,sans-serif" font-weight="400" transform="matrix(0.707107 -0.707107 0.707107 0.707107 855.052 730)">INT5</text></g><g clip-path="url(#clip21)"><text fill="#595959" font-family="Arial,Arial_MSFontService,sans-serif" font-weight="400" transform="matrix(0.707107 -0.707107 0.707107 0.707107 883.456 730)">INT6</text></g><g clip-path="url(#clip22)"><text fill="#595959" font-family="Arial,Arial_MSFontService,sans-serif" font-weight="400" transform="matrix(0.707107 -0.707107 0.707107 0.707107 911.86 730)">INT7</text></g><g clip-path="url(#clip23)"><text fill="#595959" font-family="Arial,Arial_MSFontService,sans-serif" font-weight="400" transform="matrix(0.707107 -0.707107 0.707107 0.707107 940.264 730)">INT8</text></g><g clip-path="url(#clip24)"><text fill="#595959" font-family="Arial,Arial_MSFontService,sans-serif" font-weight="400" transform="matrix(0.707107 -0.707107 0.707107 0.707107 968.667 730)">INT9</text></g><g clip-path="url(#clip25)"><text fill="#595959" font-family="Arial,Arial_MSFontService,sans-serif" font-weight="400" transform="matrix(0.707107 -0.707107 0.707107 0.707107 992.352 735)">INT10</text></g><g clip-path="url(#clip26)"><text fill="#595959" font-family="Arial,Arial_MSFontService,sans-serif" font-weight="400" transform="matrix(0.707107 -0.707107 0.707107 0.707107 1020.76 735)">INT11</text></g><g clip-path="url(#clip27)"><text fill="#595959" font-family="Arial,Arial_MSFontService,sans-serif" font-weight="400" transform="matrix(0.707107 -0.707107 0.707107 0.707107 1049.16 735)">INT12</text></g><g clip-path="url(#clip28)"><text fill="#595959" font-family="Arial,Arial_MSFontService,sans-serif" font-weight="400" transform="matrix(0.707107 -0.707107 0.707107 0.707107 1086.52 726)">end</text></g><g clip-path="url(#clip29)"><path d="M1030 409 1055 409" stroke="#4472C4" stroke-width="2" stroke-linecap="round" stroke-linejoin="round" stroke-miterlimit="10" fill="none" fill-rule="evenodd"/></g><g clip-path="url(#clip30)"><path d="M1045.5 408.5C1045.5 410.157 1043.93 411.5 1042 411.5 1040.07 411.5 1038.5 410.157 1038.5 408.5 1038.5 406.843 1040.07 405.5 1042 405.5 1043.93 405.5 1045.5 406.843 1045.5 408.5Z" stroke="#4472C4" stroke-linejoin="round" stroke-miterlimit="10" fill="#4472C4"/></g><g clip-path="url(#clip31)"><text fill="#595959" font-family="Arial,Arial_MSFontService,sans-serif" font-weight="400" transform="translate(1057.81 413)">reg</text></g><g clip-path="url(#clip32)"><path d="M1030 431 1055 431" stroke="#ED7D31" stroke-width="2" stroke-linecap="round" stroke-linejoin="round" stroke-miterlimit="10" fill="none" fill-rule="evenodd"/></g><g clip-path="url(#clip33)"><path d="M1045.5 431.5C1045.5 433.157 1043.93 434.5 1042 434.5 1040.07 434.5 1038.5 433.157 1038.5 431.5 1038.5 429.843 1040.07 428.5 1042 428.5 1043.93 428.5 1045.5 429.843 1045.5 431.5Z" stroke="#ED7D31" stroke-linejoin="round" stroke-miterlimit="10" fill="#ED7D31"/></g><g clip-path="url(#clip34)"><text fill="#595959" font-family="Arial,Arial_MSFontService,sans-serif" font-weight="400" transform="translate(1057.81 435)">ci-neb</text></g></g></svg>