<svg width="481" height="370" xmlns="http://www.w3.org/2000/svg" xmlns:xlink="http://www.w3.org/1999/xlink" overflow="hidden"><defs><clipPath id="clip0"><rect x="25" y="51" width="481" height="370"/></clipPath><clipPath id="clip1"><rect x="25" y="51" width="480" height="368"/></clipPath><clipPath id="clip2"><rect x="25" y="51" width="480" height="368"/></clipPath><clipPath id="clip3"><rect x="25" y="51" width="480" height="368"/></clipPath><clipPath id="clip4"><rect x="94" y="66" width="390" height="298"/></clipPath><clipPath id="clip5"><rect x="25" y="51" width="480" height="368"/></clipPath><clipPath id="clip6"><rect x="94" y="66" width="390" height="298"/></clipPath><clipPath id="clip7"><rect x="25" y="51" width="480" height="368"/></clipPath><clipPath id="clip8"><rect x="25" y="51" width="480" height="368"/></clipPath><clipPath id="clip9"><rect x="25" y="51" width="480" height="368"/></clipPath><clipPath id="clip10"><rect x="25" y="51" width="480" height="368"/></clipPath><clipPath id="clip11"><rect x="25" y="51" width="480" height="368"/></clipPath><clipPath id="clip12"><rect x="25" y="51" width="480" height="368"/></clipPath><clipPath id="clip13"><rect x="25" y="51" width="480" height="368"/></clipPath><clipPath id="clip14"><rect x="25" y="51" width="480" height="368"/></clipPath><clipPath id="clip15"><rect x="25" y="51" width="480" height="368"/></clipPath><clipPath id="clip16"><rect x="25" y="51" width="480" height="368"/></clipPath><clipPath id="clip17"><rect x="25" y="51" width="480" height="368"/></clipPath><clipPath id="clip18"><rect x="25" y="51" width="480" height="368"/></clipPath><clipPath id="clip19"><rect x="25" y="51" width="480" height="368"/></clipPath><clipPath id="clip20"><rect x="25" y="51" width="480" height="368"/></clipPath><clipPath id="clip21"><rect x="25" y="51" width="480" height="368"/></clipPath><clipPath id="clip22"><rect x="25" y="51" width="480" height="368"/></clipPath><clipPath id="clip23"><rect x="25" y="51" width="480" height="368"/></clipPath><clipPath id="clip24"><rect x="25" y="51" width="480" height="368"/></clipPath><clipPath id="clip25"><rect x="25" y="51" width="480" height="368"/></clipPath><clipPath id="clip26"><rect x="25" y="51" width="480" height="368"/></clipPath><clipPath id="clip27"><rect x="25" y="51" width="480" height="368"/></clipPath></defs><g clip-path="url(#clip0)" transform="translate(-25 -51)"><rect x="25" y="52" width="480" height="368" fill="#FFFFFF"/><g clip-path="url(#clip1)"><path d="M94.5001 303.5 483.5 303.5M94.5001 244.5 483.5 244.5M94.5001 185.5 483.5 185.5M94.5001 125.5 483.5 125.5M94.5001 66.5001 483.5 66.5001" stroke="#D9D9D9" stroke-linejoin="round" stroke-miterlimit="10" fill="none"/></g><g clip-path="url(#clip2)"><path d="M0 0 0.000104987 297" stroke="#404040" stroke-width="1.66667" stroke-linejoin="round" stroke-miterlimit="10" fill="none" fill-rule="evenodd" transform="matrix(1 0 0 -1 95 363)"/></g><g clip-path="url(#clip3)"><path d="M95 363 484 363" stroke="#404040" stroke-width="1.66667" stroke-linejoin="round" stroke-miterlimit="10" fill="none" fill-rule="evenodd"/></g><g clip-path="url(#clip4)"><path d="M103 200 110 232 118 81 126 187 134 238 141 280 149 244 157 311 165 320 173 322 180 327 188 336 196 331 204 338 212 340 219 339 227 343 235 344 243 340 250 346 258 345 266 343 274 347 282 345 289 340 297 345 305 344 313 341 320 348 328 348" stroke="#4472C4" stroke-width="2" stroke-linecap="round" stroke-linejoin="round" stroke-miterlimit="10" fill="none"/></g><g clip-path="url(#clip5)"><path d="M105.976 200.31C105.976 202.151 104.484 203.643 102.643 203.643 100.802 203.643 99.3095 202.151 99.3095 200.31 99.3095 198.469 100.802 196.976 102.643 196.976 104.484 196.976 105.976 198.469 105.976 200.31Z" stroke="#4472C4" stroke-linejoin="round" stroke-miterlimit="10" fill="#4472C4"/><path d="M113.643 231.643C113.643 233.484 112.15 234.976 110.31 234.976 108.469 234.976 106.976 233.484 106.976 231.643 106.976 229.802 108.469 228.31 110.31 228.31 112.15 228.31 113.643 229.802 113.643 231.643Z" stroke="#4472C4" stroke-linejoin="round" stroke-miterlimit="10" fill="#4472C4"/><path d="M121.476 81.3096C121.476 83.1506 119.984 84.6429 118.143 84.6429 116.302 84.6429 114.809 83.1506 114.809 81.3096 114.809 79.4687 116.302 77.9763 118.143 77.9763 119.984 77.9763 121.476 79.4687 121.476 81.3096Z" stroke="#4472C4" stroke-linejoin="round" stroke-miterlimit="10" fill="#4472C4"/><path d="M129.31 186.976C129.31 188.817 127.817 190.31 125.976 190.31 124.135 190.31 122.643 188.817 122.643 186.976 122.643 185.135 124.135 183.643 125.976 183.643 127.817 183.643 129.31 185.135 129.31 186.976Z" stroke="#4472C4" stroke-linejoin="round" stroke-miterlimit="10" fill="#4472C4"/><path d="M136.976 238.476C136.976 240.317 135.484 241.81 133.643 241.81 131.802 241.81 130.309 240.317 130.309 238.476 130.309 236.635 131.802 235.143 133.643 235.143 135.484 235.143 136.976 236.635 136.976 238.476Z" stroke="#4472C4" stroke-linejoin="round" stroke-miterlimit="10" fill="#4472C4"/><path d="M144.809 280.31C144.809 282.151 143.317 283.643 141.476 283.643 139.635 283.643 138.143 282.151 138.143 280.31 138.143 278.469 139.635 276.976 141.476 276.976 143.317 276.976 144.809 278.469 144.809 280.31Z" stroke="#4472C4" stroke-linejoin="round" stroke-miterlimit="10" fill="#4472C4"/><path d="M152.643 243.976C152.643 245.817 151.15 247.31 149.309 247.31 147.469 247.31 145.976 245.817 145.976 243.976 145.976 242.135 147.469 240.643 149.309 240.643 151.15 240.643 152.643 242.135 152.643 243.976Z" stroke="#4472C4" stroke-linejoin="round" stroke-miterlimit="10" fill="#4472C4"/><path d="M160.31 311.31C160.31 313.151 158.817 314.643 156.976 314.643 155.135 314.643 153.643 313.151 153.643 311.31 153.643 309.469 155.135 307.976 156.976 307.976 158.817 307.976 160.31 309.469 160.31 311.31Z" stroke="#4472C4" stroke-linejoin="round" stroke-miterlimit="10" fill="#4472C4"/><path d="M168.143 319.643C168.143 321.484 166.65 322.976 164.809 322.976 162.969 322.976 161.476 321.484 161.476 319.643 161.476 317.802 162.969 316.31 164.809 316.31 166.65 316.31 168.143 317.802 168.143 319.643Z" stroke="#4472C4" stroke-linejoin="round" stroke-miterlimit="10" fill="#4472C4"/><path d="M175.976 322.143C175.976 323.984 174.484 325.476 172.643 325.476 170.802 325.476 169.309 323.984 169.309 322.143 169.309 320.302 170.802 318.81 172.643 318.81 174.484 318.81 175.976 320.302 175.976 322.143Z" stroke="#4472C4" stroke-linejoin="round" stroke-miterlimit="10" fill="#4472C4"/><path d="M183.643 326.81C183.643 328.651 182.15 330.143 180.309 330.143 178.469 330.143 176.976 328.651 176.976 326.81 176.976 324.969 178.469 323.476 180.309 323.476 182.15 323.476 183.643 324.969 183.643 326.81Z" stroke="#4472C4" stroke-linejoin="round" stroke-miterlimit="10" fill="#4472C4"/><path d="M191.476 335.643C191.476 337.484 189.984 338.976 188.143 338.976 186.302 338.976 184.809 337.484 184.809 335.643 184.809 333.802 186.302 332.31 188.143 332.31 189.984 332.31 191.476 333.802 191.476 335.643Z" stroke="#4472C4" stroke-linejoin="round" stroke-miterlimit="10" fill="#4472C4"/><path d="M199.31 330.643C199.31 332.484 197.817 333.976 195.976 333.976 194.135 333.976 192.643 332.484 192.643 330.643 192.643 328.802 194.135 327.31 195.976 327.31 197.817 327.31 199.31 328.802 199.31 330.643Z" stroke="#4472C4" stroke-linejoin="round" stroke-miterlimit="10" fill="#4472C4"/><path d="M206.976 338.476C206.976 340.317 205.484 341.81 203.643 341.81 201.802 341.81 200.309 340.317 200.309 338.476 200.309 336.635 201.802 335.143 203.643 335.143 205.484 335.143 206.976 336.635 206.976 338.476Z" stroke="#4472C4" stroke-linejoin="round" stroke-miterlimit="10" fill="#4472C4"/><path d="M214.809 340.143C214.809 341.984 213.317 343.476 211.476 343.476 209.635 343.476 208.143 341.984 208.143 340.143 208.143 338.302 209.635 336.81 211.476 336.81 213.317 336.81 214.809 338.302 214.809 340.143Z" stroke="#4472C4" stroke-linejoin="round" stroke-miterlimit="10" fill="#4472C4"/><path d="M222.643 338.643C222.643 340.484 221.15 341.976 219.309 341.976 217.469 341.976 215.976 340.484 215.976 338.643 215.976 336.802 217.469 335.31 219.309 335.31 221.15 335.31 222.643 336.802 222.643 338.643Z" stroke="#4472C4" stroke-linejoin="round" stroke-miterlimit="10" fill="#4472C4"/><path d="M230.31 342.643C230.31 344.484 228.817 345.976 226.976 345.976 225.135 345.976 223.643 344.484 223.643 342.643 223.643 340.802 225.135 339.31 226.976 339.31 228.817 339.31 230.31 340.802 230.31 342.643Z" stroke="#4472C4" stroke-linejoin="round" stroke-miterlimit="10" fill="#4472C4"/><path d="M238.143 343.81C238.143 345.651 236.65 347.143 234.809 347.143 232.969 347.143 231.476 345.651 231.476 343.81 231.476 341.969 232.969 340.476 234.809 340.476 236.65 340.476 238.143 341.969 238.143 343.81Z" stroke="#4472C4" stroke-linejoin="round" stroke-miterlimit="10" fill="#4472C4"/><path d="M245.976 340.476C245.976 342.317 244.484 343.81 242.643 343.81 240.802 343.81 239.309 342.317 239.309 340.476 239.309 338.635 240.802 337.143 242.643 337.143 244.484 337.143 245.976 338.635 245.976 340.476Z" stroke="#4472C4" stroke-linejoin="round" stroke-miterlimit="10" fill="#4472C4"/><path d="M253.643 345.81C253.643 347.651 252.15 349.143 250.309 349.143 248.469 349.143 246.976 347.651 246.976 345.81 246.976 343.969 248.469 342.476 250.309 342.476 252.15 342.476 253.643 343.969 253.643 345.81Z" stroke="#4472C4" stroke-linejoin="round" stroke-miterlimit="10" fill="#4472C4"/><path d="M261.476 344.81C261.476 346.651 259.984 348.143 258.143 348.143 256.302 348.143 254.809 346.651 254.809 344.81 254.809 342.969 256.302 341.476 258.143 341.476 259.984 341.476 261.476 342.969 261.476 344.81Z" stroke="#4472C4" stroke-linejoin="round" stroke-miterlimit="10" fill="#4472C4"/><path d="M269.309 342.643C269.309 344.484 267.817 345.976 265.976 345.976 264.135 345.976 262.643 344.484 262.643 342.643 262.643 340.802 264.135 339.31 265.976 339.31 267.817 339.31 269.309 340.802 269.309 342.643Z" stroke="#4472C4" stroke-linejoin="round" stroke-miterlimit="10" fill="#4472C4"/><path d="M277.143 346.476C277.143 348.317 275.65 349.81 273.809 349.81 271.968 349.81 270.476 348.317 270.476 346.476 270.476 344.635 271.968 343.143 273.809 343.143 275.65 343.143 277.143 344.635 277.143 346.476Z" stroke="#4472C4" stroke-linejoin="round" stroke-miterlimit="10" fill="#4472C4"/><path d="M284.809 344.81C284.809 346.651 283.317 348.143 281.476 348.143 279.635 348.143 278.143 346.651 278.143 344.81 278.143 342.969 279.635 341.476 281.476 341.476 283.317 341.476 284.809 342.969 284.809 344.81Z" stroke="#4472C4" stroke-linejoin="round" stroke-miterlimit="10" fill="#4472C4"/><path d="M292.643 339.976C292.643 341.817 291.15 343.31 289.31 343.31 287.469 343.31 285.976 341.817 285.976 339.976 285.976 338.135 287.469 336.643 289.31 336.643 291.15 336.643 292.643 338.135 292.643 339.976Z" stroke="#4472C4" stroke-linejoin="round" stroke-miterlimit="10" fill="#4472C4"/><path d="M300.476 344.476C300.476 346.317 298.984 347.81 297.143 347.81 295.302 347.81 293.809 346.317 293.809 344.476 293.809 342.635 295.302 341.143 297.143 341.143 298.984 341.143 300.476 342.635 300.476 344.476Z" stroke="#4472C4" stroke-linejoin="round" stroke-miterlimit="10" fill="#4472C4"/><path d="M308.143 343.81C308.143 345.651 306.65 347.143 304.809 347.143 302.968 347.143 301.476 345.651 301.476 343.81 301.476 341.969 302.968 340.476 304.809 340.476 306.65 340.476 308.143 341.969 308.143 343.81Z" stroke="#4472C4" stroke-linejoin="round" stroke-miterlimit="10" fill="#4472C4"/><path d="M315.976 341.476C315.976 343.317 314.484 344.81 312.643 344.81 310.802 344.81 309.31 343.317 309.31 341.476 309.31 339.635 310.802 338.143 312.643 338.143 314.484 338.143 315.976 339.635 315.976 341.476Z" stroke="#4472C4" stroke-linejoin="round" stroke-miterlimit="10" fill="#4472C4"/><path d="M323.809 347.81C323.809 349.651 322.317 351.143 320.476 351.143 318.635 351.143 317.143 349.651 317.143 347.81 317.143 345.969 318.635 344.476 320.476 344.476 322.317 344.476 323.809 345.969 323.809 347.81Z" stroke="#4472C4" stroke-linejoin="round" stroke-miterlimit="10" fill="#4472C4"/><path d="M331.476 348.476C331.476 350.317 329.984 351.81 328.143 351.81 326.302 351.81 324.809 350.317 324.809 348.476 324.809 346.635 326.302 345.143 328.143 345.143 329.984 345.143 331.476 346.635 331.476 348.476Z" stroke="#4472C4" stroke-linejoin="round" stroke-miterlimit="10" fill="#4472C4"/></g><g clip-path="url(#clip6)"><path d="M103 200 110 206 118 218 126 234 134 249 141 250 149 229 157 209 165 200 173 212 180 228 188 253 196 280 204 301 212 308 219 305 227 300 235 297 243 298 250 303 258 310 266 314 274 311 282 306 289 310 297 319 305 312 313 315 320 324 328 312 336 322 344 335 352 339 359 336 367 333 375 336 383 341 390 344 398 340 406 340 414 345 422 344 429 343 437 345 445 345 453 345 460 347 468 344 476 340 484 350" stroke="#ED7D31" stroke-width="2" stroke-linecap="round" stroke-linejoin="round" stroke-miterlimit="10" fill="none"/></g><g clip-path="url(#clip7)"><path d="M105.976 200.31C105.976 202.151 104.484 203.643 102.643 203.643 100.802 203.643 99.3095 202.151 99.3095 200.31 99.3095 198.469 100.802 196.976 102.643 196.976 104.484 196.976 105.976 198.469 105.976 200.31Z" stroke="#ED7D31" stroke-linejoin="round" stroke-miterlimit="10" fill="#ED7D31"/><path d="M113.643 206.143C113.643 207.984 112.15 209.476 110.31 209.476 108.469 209.476 106.976 207.984 106.976 206.143 106.976 204.302 108.469 202.81 110.31 202.81 112.15 202.81 113.643 204.302 113.643 206.143Z" stroke="#ED7D31" stroke-linejoin="round" stroke-miterlimit="10" fill="#ED7D31"/><path d="M121.476 217.81C121.476 219.651 119.984 221.143 118.143 221.143 116.302 221.143 114.809 219.651 114.809 217.81 114.809 215.969 116.302 214.476 118.143 214.476 119.984 214.476 121.476 215.969 121.476 217.81Z" stroke="#ED7D31" stroke-linejoin="round" stroke-miterlimit="10" fill="#ED7D31"/><path d="M129.31 233.976C129.31 235.817 127.817 237.31 125.976 237.31 124.135 237.31 122.643 235.817 122.643 233.976 122.643 232.135 124.135 230.643 125.976 230.643 127.817 230.643 129.31 232.135 129.31 233.976Z" stroke="#ED7D31" stroke-linejoin="round" stroke-miterlimit="10" fill="#ED7D31"/><path d="M136.976 249.476C136.976 251.317 135.484 252.81 133.643 252.81 131.802 252.81 130.309 251.317 130.309 249.476 130.309 247.635 131.802 246.143 133.643 246.143 135.484 246.143 136.976 247.635 136.976 249.476Z" stroke="#ED7D31" stroke-linejoin="round" stroke-miterlimit="10" fill="#ED7D31"/><path d="M144.809 249.643C144.809 251.484 143.317 252.976 141.476 252.976 139.635 252.976 138.143 251.484 138.143 249.643 138.143 247.802 139.635 246.31 141.476 246.31 143.317 246.31 144.809 247.802 144.809 249.643Z" stroke="#ED7D31" stroke-linejoin="round" stroke-miterlimit="10" fill="#ED7D31"/><path d="M152.643 228.976C152.643 230.817 151.15 232.31 149.309 232.31 147.469 232.31 145.976 230.817 145.976 228.976 145.976 227.135 147.469 225.643 149.309 225.643 151.15 225.643 152.643 227.135 152.643 228.976Z" stroke="#ED7D31" stroke-linejoin="round" stroke-miterlimit="10" fill="#ED7D31"/><path d="M160.31 208.476C160.31 210.317 158.817 211.81 156.976 211.81 155.135 211.81 153.643 210.317 153.643 208.476 153.643 206.635 155.135 205.143 156.976 205.143 158.817 205.143 160.31 206.635 160.31 208.476Z" stroke="#ED7D31" stroke-linejoin="round" stroke-miterlimit="10" fill="#ED7D31"/><path d="M168.143 200.31C168.143 202.151 166.65 203.643 164.809 203.643 162.969 203.643 161.476 202.151 161.476 200.31 161.476 198.469 162.969 196.976 164.809 196.976 166.65 196.976 168.143 198.469 168.143 200.31Z" stroke="#ED7D31" stroke-linejoin="round" stroke-miterlimit="10" fill="#ED7D31"/><path d="M175.976 211.976C175.976 213.817 174.484 215.31 172.643 215.31 170.802 215.31 169.309 213.817 169.309 211.976 169.309 210.135 170.802 208.643 172.643 208.643 174.484 208.643 175.976 210.135 175.976 211.976Z" stroke="#ED7D31" stroke-linejoin="round" stroke-miterlimit="10" fill="#ED7D31"/><path d="M183.643 227.643C183.643 229.484 182.15 230.976 180.309 230.976 178.469 230.976 176.976 229.484 176.976 227.643 176.976 225.802 178.469 224.31 180.309 224.31 182.15 224.31 183.643 225.802 183.643 227.643Z" stroke="#ED7D31" stroke-linejoin="round" stroke-miterlimit="10" fill="#ED7D31"/><path d="M191.476 253.143C191.476 254.984 189.984 256.476 188.143 256.476 186.302 256.476 184.809 254.984 184.809 253.143 184.809 251.302 186.302 249.81 188.143 249.81 189.984 249.81 191.476 251.302 191.476 253.143Z" stroke="#ED7D31" stroke-linejoin="round" stroke-miterlimit="10" fill="#ED7D31"/><path d="M199.31 280.31C199.31 282.151 197.817 283.643 195.976 283.643 194.135 283.643 192.643 282.151 192.643 280.31 192.643 278.469 194.135 276.976 195.976 276.976 197.817 276.976 199.31 278.469 199.31 280.31Z" stroke="#ED7D31" stroke-linejoin="round" stroke-miterlimit="10" fill="#ED7D31"/><path d="M206.976 300.476C206.976 302.317 205.484 303.81 203.643 303.81 201.802 303.81 200.309 302.317 200.309 300.476 200.309 298.635 201.802 297.143 203.643 297.143 205.484 297.143 206.976 298.635 206.976 300.476Z" stroke="#ED7D31" stroke-linejoin="round" stroke-miterlimit="10" fill="#ED7D31"/><path d="M214.809 308.143C214.809 309.984 213.317 311.476 211.476 311.476 209.635 311.476 208.143 309.984 208.143 308.143 208.143 306.302 209.635 304.81 211.476 304.81 213.317 304.81 214.809 306.302 214.809 308.143Z" stroke="#ED7D31" stroke-linejoin="round" stroke-miterlimit="10" fill="#ED7D31"/><path d="M222.643 305.31C222.643 307.151 221.15 308.643 219.309 308.643 217.469 308.643 215.976 307.151 215.976 305.31 215.976 303.469 217.469 301.976 219.309 301.976 221.15 301.976 222.643 303.469 222.643 305.31Z" stroke="#ED7D31" stroke-linejoin="round" stroke-miterlimit="10" fill="#ED7D31"/><path d="M230.31 300.143C230.31 301.984 228.817 303.476 226.976 303.476 225.135 303.476 223.643 301.984 223.643 300.143 223.643 298.302 225.135 296.81 226.976 296.81 228.817 296.81 230.31 298.302 230.31 300.143Z" stroke="#ED7D31" stroke-linejoin="round" stroke-miterlimit="10" fill="#ED7D31"/><path d="M238.143 296.976C238.143 298.817 236.65 300.31 234.809 300.31 232.969 300.31 231.476 298.817 231.476 296.976 231.476 295.135 232.969 293.643 234.809 293.643 236.65 293.643 238.143 295.135 238.143 296.976Z" stroke="#ED7D31" stroke-linejoin="round" stroke-miterlimit="10" fill="#ED7D31"/><path d="M245.976 298.143C245.976 299.984 244.484 301.476 242.643 301.476 240.802 301.476 239.309 299.984 239.309 298.143 239.309 296.302 240.802 294.81 242.643 294.81 244.484 294.81 245.976 296.302 245.976 298.143Z" stroke="#ED7D31" stroke-linejoin="round" stroke-miterlimit="10" fill="#ED7D31"/><path d="M253.643 303.31C253.643 305.151 252.15 306.643 250.309 306.643 248.469 306.643 246.976 305.151 246.976 303.31 246.976 301.469 248.469 299.976 250.309 299.976 252.15 299.976 253.643 301.469 253.643 303.31Z" stroke="#ED7D31" stroke-linejoin="round" stroke-miterlimit="10" fill="#ED7D31"/><path d="M261.476 310.476C261.476 312.317 259.984 313.81 258.143 313.81 256.302 313.81 254.809 312.317 254.809 310.476 254.809 308.635 256.302 307.143 258.143 307.143 259.984 307.143 261.476 308.635 261.476 310.476Z" stroke="#ED7D31" stroke-linejoin="round" stroke-miterlimit="10" fill="#ED7D31"/><path d="M269.309 314.476C269.309 316.317 267.817 317.81 265.976 317.81 264.135 317.81 262.643 316.317 262.643 314.476 262.643 312.635 264.135 311.143 265.976 311.143 267.817 311.143 269.309 312.635 269.309 314.476Z" stroke="#ED7D31" stroke-linejoin="round" stroke-miterlimit="10" fill="#ED7D31"/><path d="M277.143 311.143C277.143 312.984 275.65 314.476 273.809 314.476 271.968 314.476 270.476 312.984 270.476 311.143 270.476 309.302 271.968 307.81 273.809 307.81 275.65 307.81 277.143 309.302 277.143 311.143Z" stroke="#ED7D31" stroke-linejoin="round" stroke-miterlimit="10" fill="#ED7D31"/><path d="M284.809 305.643C284.809 307.484 283.317 308.976 281.476 308.976 279.635 308.976 278.143 307.484 278.143 305.643 278.143 303.802 279.635 302.31 281.476 302.31 283.317 302.31 284.809 303.802 284.809 305.643Z" stroke="#ED7D31" stroke-linejoin="round" stroke-miterlimit="10" fill="#ED7D31"/><path d="M292.643 310.31C292.643 312.151 291.15 313.643 289.31 313.643 287.469 313.643 285.976 312.151 285.976 310.31 285.976 308.469 287.469 306.976 289.31 306.976 291.15 306.976 292.643 308.469 292.643 310.31Z" stroke="#ED7D31" stroke-linejoin="round" stroke-miterlimit="10" fill="#ED7D31"/><path d="M300.476 318.976C300.476 320.817 298.984 322.31 297.143 322.31 295.302 322.31 293.809 320.817 293.809 318.976 293.809 317.135 295.302 315.643 297.143 315.643 298.984 315.643 300.476 317.135 300.476 318.976Z" stroke="#ED7D31" stroke-linejoin="round" stroke-miterlimit="10" fill="#ED7D31"/><path d="M308.143 312.31C308.143 314.151 306.65 315.643 304.809 315.643 302.968 315.643 301.476 314.151 301.476 312.31 301.476 310.469 302.968 308.976 304.809 308.976 306.65 308.976 308.143 310.469 308.143 312.31Z" stroke="#ED7D31" stroke-linejoin="round" stroke-miterlimit="10" fill="#ED7D31"/><path d="M315.976 314.643C315.976 316.484 314.484 317.976 312.643 317.976 310.802 317.976 309.31 316.484 309.31 314.643 309.31 312.802 310.802 311.31 312.643 311.31 314.484 311.31 315.976 312.802 315.976 314.643Z" stroke="#ED7D31" stroke-linejoin="round" stroke-miterlimit="10" fill="#ED7D31"/><path d="M323.809 324.143C323.809 325.984 322.317 327.476 320.476 327.476 318.635 327.476 317.143 325.984 317.143 324.143 317.143 322.302 318.635 320.81 320.476 320.81 322.317 320.81 323.809 322.302 323.809 324.143Z" stroke="#ED7D31" stroke-linejoin="round" stroke-miterlimit="10" fill="#ED7D31"/><path d="M331.476 312.143C331.476 313.984 329.984 315.476 328.143 315.476 326.302 315.476 324.809 313.984 324.809 312.143 324.809 310.302 326.302 308.81 328.143 308.81 329.984 308.81 331.476 310.302 331.476 312.143Z" stroke="#ED7D31" stroke-linejoin="round" stroke-miterlimit="10" fill="#ED7D31"/><path d="M339.309 321.976C339.309 323.817 337.817 325.31 335.976 325.31 334.135 325.31 332.643 323.817 332.643 321.976 332.643 320.135 334.135 318.643 335.976 318.643 337.817 318.643 339.309 320.135 339.309 321.976Z" stroke="#ED7D31" stroke-linejoin="round" stroke-miterlimit="10" fill="#ED7D31"/><path d="M347.143 334.643C347.143 336.484 345.65 337.976 343.809 337.976 341.968 337.976 340.476 336.484 340.476 334.643 340.476 332.802 341.968 331.31 343.809 331.31 345.65 331.31 347.143 332.802 347.143 334.643Z" stroke="#ED7D31" stroke-linejoin="round" stroke-miterlimit="10" fill="#ED7D31"/><path d="M354.809 339.31C354.809 341.151 353.317 342.643 351.476 342.643 349.635 342.643 348.143 341.151 348.143 339.31 348.143 337.469 349.635 335.976 351.476 335.976 353.317 335.976 354.809 337.469 354.809 339.31Z" stroke="#ED7D31" stroke-linejoin="round" stroke-miterlimit="10" fill="#ED7D31"/><path d="M362.643 335.643C362.643 337.484 361.15 338.976 359.31 338.976 357.469 338.976 355.976 337.484 355.976 335.643 355.976 333.802 357.469 332.31 359.31 332.31 361.15 332.31 362.643 333.802 362.643 335.643Z" stroke="#ED7D31" stroke-linejoin="round" stroke-miterlimit="10" fill="#ED7D31"/><path d="M370.476 333.31C370.476 335.151 368.984 336.643 367.143 336.643 365.302 336.643 363.809 335.151 363.809 333.31 363.809 331.469 365.302 329.976 367.143 329.976 368.984 329.976 370.476 331.469 370.476 333.31Z" stroke="#ED7D31" stroke-linejoin="round" stroke-miterlimit="10" fill="#ED7D31"/><path d="M378.143 335.643C378.143 337.484 376.65 338.976 374.809 338.976 372.968 338.976 371.476 337.484 371.476 335.643 371.476 333.802 372.968 332.31 374.809 332.31 376.65 332.31 378.143 333.802 378.143 335.643Z" stroke="#ED7D31" stroke-linejoin="round" stroke-miterlimit="10" fill="#ED7D31"/><path d="M385.976 341.31C385.976 343.151 384.484 344.643 382.643 344.643 380.802 344.643 379.31 343.151 379.31 341.31 379.31 339.469 380.802 337.976 382.643 337.976 384.484 337.976 385.976 339.469 385.976 341.31Z" stroke="#ED7D31" stroke-linejoin="round" stroke-miterlimit="10" fill="#ED7D31"/><path d="M393.809 343.81C393.809 345.651 392.317 347.143 390.476 347.143 388.635 347.143 387.143 345.651 387.143 343.81 387.143 341.969 388.635 340.476 390.476 340.476 392.317 340.476 393.809 341.969 393.809 343.81Z" stroke="#ED7D31" stroke-linejoin="round" stroke-miterlimit="10" fill="#ED7D31"/><path d="M401.476 339.643C401.476 341.484 399.984 342.976 398.143 342.976 396.302 342.976 394.809 341.484 394.809 339.643 394.809 337.802 396.302 336.31 398.143 336.31 399.984 336.31 401.476 337.802 401.476 339.643Z" stroke="#ED7D31" stroke-linejoin="round" stroke-miterlimit="10" fill="#ED7D31"/><path d="M409.309 339.976C409.309 341.817 407.817 343.31 405.976 343.31 404.135 343.31 402.643 341.817 402.643 339.976 402.643 338.135 404.135 336.643 405.976 336.643 407.817 336.643 409.309 338.135 409.309 339.976Z" stroke="#ED7D31" stroke-linejoin="round" stroke-miterlimit="10" fill="#ED7D31"/><path d="M417.143 345.31C417.143 347.151 415.65 348.643 413.809 348.643 411.968 348.643 410.476 347.151 410.476 345.31 410.476 343.469 411.968 341.976 413.809 341.976 415.65 341.976 417.143 343.469 417.143 345.31Z" stroke="#ED7D31" stroke-linejoin="round" stroke-miterlimit="10" fill="#ED7D31"/><path d="M424.809 343.476C424.809 345.317 423.317 346.81 421.476 346.81 419.635 346.81 418.143 345.317 418.143 343.476 418.143 341.635 419.635 340.143 421.476 340.143 423.317 340.143 424.809 341.635 424.809 343.476Z" stroke="#ED7D31" stroke-linejoin="round" stroke-miterlimit="10" fill="#ED7D31"/><path d="M432.643 342.976C432.643 344.817 431.15 346.31 429.31 346.31 427.469 346.31 425.976 344.817 425.976 342.976 425.976 341.135 427.469 339.643 429.31 339.643 431.15 339.643 432.643 341.135 432.643 342.976Z" stroke="#ED7D31" stroke-linejoin="round" stroke-miterlimit="10" fill="#ED7D31"/><path d="M440.476 345.476C440.476 347.317 438.984 348.81 437.143 348.81 435.302 348.81 433.809 347.317 433.809 345.476 433.809 343.635 435.302 342.143 437.143 342.143 438.984 342.143 440.476 343.635 440.476 345.476Z" stroke="#ED7D31" stroke-linejoin="round" stroke-miterlimit="10" fill="#ED7D31"/><path d="M448.143 344.976C448.143 346.817 446.65 348.31 444.809 348.31 442.968 348.31 441.476 346.817 441.476 344.976 441.476 343.135 442.968 341.643 444.809 341.643 446.65 341.643 448.143 343.135 448.143 344.976Z" stroke="#ED7D31" stroke-linejoin="round" stroke-miterlimit="10" fill="#ED7D31"/><path d="M455.976 344.81C455.976 346.651 454.484 348.143 452.643 348.143 450.802 348.143 449.31 346.651 449.31 344.81 449.31 342.969 450.802 341.476 452.643 341.476 454.484 341.476 455.976 342.969 455.976 344.81Z" stroke="#ED7D31" stroke-linejoin="round" stroke-miterlimit="10" fill="#ED7D31"/><path d="M463.809 347.143C463.809 348.984 462.317 350.476 460.476 350.476 458.635 350.476 457.143 348.984 457.143 347.143 457.143 345.302 458.635 343.81 460.476 343.81 462.317 343.81 463.809 345.302 463.809 347.143Z" stroke="#ED7D31" stroke-linejoin="round" stroke-miterlimit="10" fill="#ED7D31"/><path d="M471.476 343.976C471.476 345.817 469.984 347.31 468.143 347.31 466.302 347.31 464.809 345.817 464.809 343.976 464.809 342.135 466.302 340.643 468.143 340.643 469.984 340.643 471.476 342.135 471.476 343.976Z" stroke="#ED7D31" stroke-linejoin="round" stroke-miterlimit="10" fill="#ED7D31"/><path d="M479.309 339.643C479.309 341.484 477.817 342.976 475.976 342.976 474.135 342.976 472.643 341.484 472.643 339.643 472.643 337.802 474.135 336.31 475.976 336.31 477.817 336.31 479.309 337.802 479.309 339.643Z" stroke="#ED7D31" stroke-linejoin="round" stroke-miterlimit="10" fill="#ED7D31"/><path d="M487.143 350.143C487.143 351.984 485.65 353.476 483.809 353.476 481.968 353.476 480.476 351.984 480.476 350.143 480.476 348.302 481.968 346.81 483.809 346.81 485.65 346.81 487.143 348.302 487.143 350.143Z" stroke="#ED7D31" stroke-linejoin="round" stroke-miterlimit="10" fill="#ED7D31"/></g><g clip-path="url(#clip8)"><text fill="#595959" font-family="Arial,Arial_MSFontService,sans-serif" font-weight="400" transform="translate(77.8229 367)">0</text></g><g clip-path="url(#clip9)"><text fill="#595959" font-family="Arial,Arial_MSFontService,sans-serif" font-weight="400" transform="translate(61.1428 308)">0.01</text></g><g clip-path="url(#clip10)"><text fill="#595959" font-family="Arial,Arial_MSFontService,sans-serif" font-weight="400" transform="translate(61.1428 248)">0.02</text></g><g clip-path="url(#clip11)"><text fill="#595959" font-family="Arial,Arial_MSFontService,sans-serif" font-weight="400" transform="translate(61.1428 189)">0.03</text></g><g clip-path="url(#clip12)"><text fill="#595959" font-family="Arial,Arial_MSFontService,sans-serif" font-weight="400" transform="translate(61.1428 130)">0.04</text></g><g clip-path="url(#clip13)"><text fill="#595959" font-family="Arial,Arial_MSFontService,sans-serif" font-weight="400" transform="translate(61.1428 70)">0.05</text></g><g clip-path="url(#clip14)"><text fill="#595959" font-family="Arial,Arial_MSFontService,sans-serif" font-weight="400" transform="translate(91.4796 381)">0</text></g><g clip-path="url(#clip15)"><text fill="#595959" font-family="Arial,Arial_MSFontService,sans-serif" font-weight="400" transform="translate(165.94 381)">10</text></g><g clip-path="url(#clip16)"><text fill="#595959" font-family="Arial,Arial_MSFontService,sans-serif" font-weight="400" transform="translate(243.738 381)">20</text></g><g clip-path="url(#clip17)"><text fill="#595959" font-family="Arial,Arial_MSFontService,sans-serif" font-weight="400" transform="translate(321.535 381)">30</text></g><g clip-path="url(#clip18)"><text fill="#595959" font-family="Arial,Arial_MSFontService,sans-serif" font-weight="400" transform="translate(399.332 381)">40</text></g><g clip-path="url(#clip19)"><text fill="#595959" font-family="Arial,Arial_MSFontService,sans-serif" font-weight="400" transform="translate(477.129 381)">50</text></g><g clip-path="url(#clip20)"><text fill="#595959" font-family="Arial,Arial_MSFontService,sans-serif" font-weight="400" font-size="13" transform="matrix(6.12323e-17 -1 1 6.12323e-17 54.8094 230)">RMS</text></g><g clip-path="url(#clip21)"><text fill="#595959" font-family="Arial,Arial_MSFontService,sans-serif" font-weight="400" font-size="13" transform="translate(276.71 401)">step</text></g><g clip-path="url(#clip22)"><path d="M393 91 418 91.0001" stroke="#4472C4" stroke-width="2" stroke-linecap="round" stroke-linejoin="round" stroke-miterlimit="10" fill="none" fill-rule="evenodd"/></g><g clip-path="url(#clip23)"><path d="M408.5 90.5001C408.5 92.1569 407.157 93.5001 405.5 93.5001 403.843 93.5001 402.5 92.1569 402.5 90.5001 402.5 88.8432 403.843 87.5001 405.5 87.5001 407.157 87.5001 408.5 88.8432 408.5 90.5001Z" stroke="#4472C4" stroke-linejoin="round" stroke-miterlimit="10" fill="#4472C4"/></g><g clip-path="url(#clip24)"><text fill="#595959" font-family="Arial,Arial_MSFontService,sans-serif" font-weight="400" transform="translate(421.073 94)">BFGS</text></g><g clip-path="url(#clip25)"><path d="M393 113 418 113" stroke="#ED7D31" stroke-width="2" stroke-linecap="round" stroke-linejoin="round" stroke-miterlimit="10" fill="none" fill-rule="evenodd"/></g><g clip-path="url(#clip26)"><path d="M408.5 113C408.5 114.933 407.157 116.5 405.5 116.5 403.843 116.5 402.5 114.933 402.5 113 402.5 111.067 403.843 109.5 405.5 109.5 407.157 109.5 408.5 111.067 408.5 113Z" stroke="#ED7D31" stroke-linejoin="round" stroke-miterlimit="10" fill="#ED7D31"/></g><g clip-path="url(#clip27)"><text fill="#595959" font-family="Arial,Arial_MSFontService,sans-serif" font-weight="400" transform="translate(421.073 117)">FIRE</text></g></g></svg>